<?xml version="1.0" encoding="utf-8"?>
<!-- Generator: Adobe Illustrator 19.0.0, SVG Export Plug-In . SVG Version: 6.00 Build 0)  -->
<svg version="1.1" id="Layer_1" xmlns="http://www.w3.org/2000/svg" xmlns:xlink="http://www.w3.org/1999/xlink" x="0px" y="0px"
	 viewBox="0 0 1116.4 1080.5" style="enable-background:new 0 0 1116.4 1080.5;" xml:space="preserve">
<style type="text/css">
	.st0{fill:#FFFFFF;}
	.st1{fill:#191919;}
</style>
<rect id="XMLID_142_" x="-2241.8" y="3388.3" class="st0" width="5500" height="4500"/>
<g id="XMLID_195_">
	<path id="XMLID_334_" class="st1" d="M5783-526.8c-3.6,5.2-7.4,10.3-11.5,15.5l-5.3,6.7l-7.1-4.7c-1-0.7-12.8-8.6-27.5-23
		c-2.3,10.2-6.5,25-13.6,41.6c5.3,32.7,36.6,67,49.6,80c30-24.8,42.4-52.3,46.8-64.4C5797-495.7,5787.9-513.6,5783-526.8z"/>
	<path id="XMLID_333_" class="st1" d="M5884.9-542.5c-7.9-19.8-13.5-44.2-14-73.9c-3.7,3.6-7.6,7.2-11.8,10.6l-5.8,4.8l-5.9-4.7
		c-0.9-0.7-10.5-8.5-22.9-22.6c-3,19.2-10.3,48-27.9,79.8c1.1,8.2,7.6,37.6,45,75.6C5852.5-483.4,5875-508.5,5884.9-542.5z"/>
	<path id="XMLID_332_" class="st1" d="M5806.7-214.9c-3.6-6.6-6.1-12.5-7.9-17.7c-4.5,3.7-7.6,5.6-8,5.9l-6.1,3.7l-5.1-5
		c-3.2-3.1-6.1-6.2-8.8-9.3c-3.7,13.6-9,24.5-14.5,33.1c5.2,10.7,12.6,21.2,22,31.1C5785.5-178.4,5798.8-190.9,5806.7-214.9z"/>
	<path id="XMLID_331_" class="st1" d="M5802.7-343.6c-8.4,12.5-22.6,29.9-44.2,45.4c1.3,7.3,6.7,27.8,28.6,51.3
		c10-8.3,29.9-29.1,35.3-66.3C5815.8-321.3,5808.8-331.4,5802.7-343.6z"/>
	<path id="XMLID_330_" class="st1" d="M5912-787.7c-36.4,27.5-77.2,49.5-121.1,64.8c16.7,50.9,49.2,85.2,62.4,97.5
		c58.3-53,63.9-135.8,64.4-150.2C5915.7-779.5,5913.8-783.5,5912-787.7z"/>
	<path id="XMLID_329_" class="st1" d="M6005.6-729.2c-4.4,6.7-9.3,13.4-14.7,20.2l-4.9,6.1l-6.8-3.7c-1.3-0.7-23.7-13.1-45.3-42.5
		c-2.8,19.6-9,47-22.3,75c16.5,42.1,42.7,64.9,54.8,73.7c38.4-51.6,44.5-101,45.5-116.8C6009.8-721.1,6007.6-725,6005.6-729.2z"/>
	<path id="XMLID_328_" class="st1" d="M6007.4-886c-22.8,32.2-49.8,61.2-80.2,86.2c16.6,41.2,42.3,63.7,54.3,72.4
		c5.7-7.7,10.7-15.3,15.1-22.8c-0.1-0.1-0.1-0.3-0.2-0.4l0.5-0.2c26.8-46,29.8-85.9,30.1-96.2C6020-858,6013.3-870.9,6007.4-886z"/>
	<path id="XMLID_327_" class="st1" d="M5743.5-188.4c-7.5,7.5-13.6,10.8-14.2,11.1l-6,3.1l-4.8-4.7c-4.4-4.3-8.4-8.4-12-12.4
		c-2.2,5.9-5,11.5-8.1,16.8c1.5,9.9,11.7,35.1,24,44.5c7.8-3.9,25.4-15,35.1-38.3C5752.1-174.8,5747.4-181.5,5743.5-188.4z"/>
	<path id="XMLID_326_" class="st1" d="M5566.4-130c12.3-9.4,22.5-34.6,24-44.5c-3.1-5.3-5.8-10.9-8.1-16.8c-3.6,4-7.6,8.1-12,12.4
		l-4.8,4.7l-6-3.1c-0.6-0.3-6.6-3.6-14.2-11.1c-4,6.9-8.7,13.6-14.1,20.1C5541-145.1,5558.6-133.9,5566.4-130z"/>
	<path id="XMLID_325_" class="st1" d="M5762.4-530c40.4-54.5,44.9-106.7,45.4-119.2c-12.7-17.7-25.7-40.5-34.7-67.9
		c-13.2,4-26.7,7.4-40.4,10.2c-3.3,14.1-13.3,50.3-35.5,91.1C5714.8-571.1,5748-541.3,5762.4-530z"/>
	<path id="XMLID_324_" class="st1" d="M5650.3-868.2l-5.8,4.7l-5.8-4.7c-1.7-1.4-18.2-15.1-36.7-41.2c-4.8,23.9-16.6,59.2-46.4,88.6
		c-29.2,28.9-69.1,45.6-118.8,49.9c61.5,34.5,132.4,54.2,207.8,54.2c75.4,0,146.2-19.7,207.8-54.2c-49.7-4.4-89.6-21.1-118.8-49.9
		c-29.7-29.4-41.6-64.7-46.4-88.6C5668.5-883.3,5652-869.6,5650.3-868.2z"/>
	<path id="XMLID_323_" class="st1" d="M5447.2-472.8c37.5-38.1,44-67.5,45.1-75.7c-17.7-31.8-25-60.6-27.9-79.8
		c-12.4,14.1-22,21.8-22.9,22.6l-5.9,4.7l-5.8-4.8c-4.2-3.4-8.1-7-11.8-10.6c-0.6,29.7-6.1,54.1-14,73.9
		C5413.8-508.4,5436.3-483.4,5447.2-472.8z"/>
	<path id="XMLID_322_" class="st1" d="M5515.7-717.1c-9,27.4-22,50.2-34.7,67.9c0.5,12.5,5,64.7,45.4,119.2
		c14.4-11.4,47.7-41.3,65.2-85.8c-22.2-40.8-32.1-77-35.5-91.1C5542.4-709.7,5528.9-713.1,5515.7-717.1z"/>
	<path id="XMLID_321_" class="st1" d="M5501.8-247c21.9-23.5,27.3-44,28.6-51.3c-21.6-15.4-35.8-32.8-44.2-45.4
		c-6.1,12.2-13.1,22.4-19.7,30.4C5471.9-276.1,5491.7-255.3,5501.8-247z"/>
	<path id="XMLID_320_" class="st1" d="M5521.3-410.7c13-13,44.3-47.3,49.6-80c-7.2-16.6-11.3-31.4-13.6-41.6
		c-14.7,14.5-26.5,22.3-27.5,23l-7.1,4.7l-5.3-6.7c-4.2-5.2-8-10.4-11.5-15.5c-4.8,13.2-14,31-31.3,51.7
		C5478.9-462.9,5491.5-435.3,5521.3-410.7z"/>
	<path id="XMLID_319_" class="st1" d="M5510.7-173.1c9.4-10,16.7-20.4,22-31.1c-5.5-8.5-10.8-19.4-14.5-33.1
		c-2.7,3.1-5.6,6.1-8.8,9.3l-5.1,5l-6.1-3.7c-0.5-0.3-3.6-2.2-8-5.9c-1.8,5.1-4.3,11.1-7.9,17.7
		C5490-190.9,5503.3-178.5,5510.7-173.1z"/>
	<path id="XMLID_318_" class="st1" d="M6043.7-825.2c-3,18.7-9.9,46.1-26.4,76.5c4,9.7,8.5,18.1,13,25.5l0.5,0c0,0.1,0,0.4,0,0.8
		c14.4,23,30,35.3,37.9,40.6c37.3-37,41.1-83.6,41.4-90.6c-0.6-3.9-1.1-7.7-1.7-11.3C6096-786.8,6069.1-796.7,6043.7-825.2z"/>
	<path id="XMLID_317_" class="st1" d="M5384.2-543.8c0-0.1-0.1-0.2-0.1-0.3l0.3-0.1c10.1-23.1,17-53.8,14.4-94
		c-3.7-5-7.1-10.1-10.3-15.2c-25,52.2-62.1,72.7-63.8,73.6l-6.8,3.7l-4.9-6.1c-9.8-12.3-17.8-24.5-24.4-36.2
		c-2.8,6-5.8,11.7-8.8,16.9c2.2,12.9,13.4,64.2,60.9,113.2C5350.3-495.2,5370.3-512.3,5384.2-543.8z"/>
	<path id="XMLID_316_" class="st1" d="M6099.2-833.6c-12-49.5-32.8-106.6-44.5-137.1c-9.6,22.9-21.2,44.8-34.3,65.5
		c22.6,69,63.5,92.9,84.4,100.8c-2-10-3.6-16.9-4.4-19.9C6099.5-827.4,6099.2-830.5,6099.2-833.6z"/>
	<path id="XMLID_315_" class="st1" d="M5483.8-422c-11.6-14.2-18.9-27.7-23.3-37.8c-2.1,2.2-4.3,4.3-6.6,6.5l-5.9,5.6l-6.4-5.1
		c-0.3-0.3-1.9-1.6-4.4-3.8c-2.6,16.3-10,39.5-29.6,64.5c0.6,10.9,4.6,49.4,32,80.4C5454-325.1,5487.1-362.9,5483.8-422z"/>
	<path id="XMLID_314_" class="st1" d="M5422.2-228.5c0,0.1,0.1,0.4,0.2,0.8c8.4,14.5,18.2,24.3,24.4,29.7
		c6.8-7.3,12.6-14.9,17.2-22.7c7.2-12.1,9.9-21.9,11-27.1c-9.2-11.2-18.8-27.2-24.2-48.7c-3.4,3.1-5.6,4.8-6.1,5.2l-6.4,4.8
		l-5.7-5.6c-5.1-5-9.6-10.2-13.6-15.5c-1.4,11.7-4.5,24.9-10.9,38.7c2.3,16.1,7.6,29.6,13.9,40.5L5422.2-228.5z"/>
	<path id="XMLID_313_" class="st1" d="M5419.9-474.9c-9.2-11.1-19.6-26.1-27.4-44.2c-20.8,35.4-47,49.9-48.9,50.9l-3.9,2.1
		c0,3.2-0.1,6.6-0.3,10.3l0,0c8.7,36.4,30.8,57.8,41.4,66.2C5419.1-429.1,5420.3-465.4,5419.9-474.9z"/>
	<path id="XMLID_312_" class="st1" d="M5843.8-119.5c0-14.7-12-26.7-26.7-26.7c-14.7,0-26.7,12-26.7,26.7v104.4
		c0,14.7,12,26.7,26.7,26.7c14.7,0,26.7-12,26.7-26.7V-119.5z"/>
	<path id="XMLID_311_" class="st1" d="M5471.7,11.6c14.7,0,26.7-12,26.7-26.7v-104.4c0-14.7-12-26.7-26.7-26.7
		c-14.7,0-26.7,12-26.7,26.7v104.4C5445-0.4,5457,11.6,5471.7,11.6z"/>
	<path id="XMLID_310_" class="st1" d="M5576.3-703.3c7,25.3,26.2,82.3,68.1,132.7c41.9-50.4,61.1-107.4,68.1-132.7
		c-22.2,3.4-44.9,5.2-68.1,5.2v0c0,0,0,0,0,0c0,0,0,0,0,0v0C5621.2-698.1,5598.5-699.9,5576.3-703.3z"/>
	<path id="XMLID_309_" class="st1" d="M5528.5,109.7c45.5,37.2,95.6,78.3,116,148.7c20.3-70.4,70.5-111.5,116-148.7
		c33.3-27.2,63.2-51.7,76.2-83.9c-5.9,2.8-12.5,4.4-19.4,4.4c-19.7,0-36.5-12.7-42.7-30.2c-13.3,32-40.5,48.1-66.2,60.1
		c-53.9,25-63.8,69.1-63.8,69.1s0-28.6-63.8-69.1c-24-15.2-52.9-28.1-66.2-60.1c-6.2,17.6-23,30.2-42.7,30.2c-7,0-13.5-1.6-19.4-4.4
		C5465.3,58,5495.2,82.4,5528.5,109.7z"/>
	<path id="XMLID_308_" class="st1" d="M5435.7-147c8.3-10.9,21.3-17.9,36-17.9c25,0,45.4,20.3,45.4,45.4v0.6h31.6
		c-9.7-6.5-22.1-17.5-31.1-34.7l-3.5,3.4l-5.8-2.7c-1.1-0.5-23.9-11.4-38.7-43.3c-4.6,5.9-9.7,11.7-15.4,17.2l-5.4,5.2l-6.3-4.1
		c-0.8-0.5-8.7-5.8-18.2-16.1c-1,10.3-3.8,21.5-9.9,31.5c6.4,2.2,12.4,5.8,17.3,10.8C5433.2-150.1,5434.5-148.6,5435.7-147z"/>
	<path id="XMLID_307_" class="st1" d="M5397.9-878.4c-52.7-9.4-96.9-31.8-129.9-64.5c33.3,62.3,81.6,115.5,140.1,154.6
		c58.1,0.3,103.3-15.1,134.3-45.7c28.5-28.2,38.5-63.1,42.1-84.1c-30.1,27.8-80.6,44.2-136.2,44.2
		C5431.8-874,5414.9-875.4,5397.9-878.4z"/>
	<path id="XMLID_306_" class="st1" d="M5652.6-1055.7l-8.2,13.2l-8.2-13.3c-0.2-0.4-14.1-24.6-68.7-65.1
		c-7.3,78.2,13.1,137.4,35.5,177.3l0.9,0.5c-0.1,0.2-0.2,0.4-0.3,0.6c15.7,27.7,32.3,45.8,40.8,54.2c8.5-8.4,25.1-26.5,40.8-54.2
		c-0.1-0.2-0.2-0.4-0.3-0.6l0.9-0.5c22.4-39.9,42.9-99.1,35.5-177.3C5666.7-1080.3,5652.8-1056.1,5652.6-1055.7z"/>
	<path id="XMLID_305_" class="st1" d="M5296.8-385.4c28.7-33.1,24.3-90.6,23.7-97.1c-9.3-10.3-17.1-20.5-23.7-30.5
		c-4.2,18.2-13.8,43.5-35.5,74l-3.6,5.1l-6.1-1.4c-0.8-0.2-8.4-2.1-18.8-8.4C5253.7-411.7,5284.2-392.4,5296.8-385.4z"/>
	<path id="XMLID_304_" class="st1" d="M5890.9-878.4c-17,3-33.9,4.5-50.4,4.5c-55.5,0-106-16.4-136.1-44.2
		c3.6,21.1,13.7,56.1,42.2,84.2c31,30.5,76.1,45.9,134.1,45.6c58.5-39.1,106.8-92.2,140.1-154.6
		C5987.8-910.3,5943.5-887.8,5890.9-878.4z"/>
	<path id="XMLID_303_" class="st1" d="M5188.5-824.3c-0.8,3.1-2.4,10-4.4,20c20.9-7.8,61.6-31.4,84.4-100.9
		c-13.2-20.7-24.7-42.6-34.3-65.5c-11.7,30.5-32.5,87.6-44.5,137.1C5189.6-830.5,5189.3-827.4,5188.5-824.3z"/>
	<path id="XMLID_302_" class="st1" d="M5223.6-542.4l-6.8,3.7l-4.9-6.1c-14.8-18.5-25.8-36.6-34-53.3c3.8,25.4,9.8,51.3,18.7,76.7
		l0,0c16.3,44.8,42,60.7,53.5,65.8c31.4-46.5,31.4-77.8,31-84.4c-7.8-15.6-12.7-29.6-15.7-40.3
		C5244.9-554.2,5224.8-543.1,5223.6-542.4z"/>
	<path id="XMLID_301_" class="st1" d="M5178.7-772.4c0.4,7,4.1,53.6,41.4,90.6c8-5.3,23.6-17.7,37.9-40.6c0-0.3,0-0.6,0-0.7l0.4,0
		c4.6-7.4,9.1-15.8,13.1-25.5c-16.5-30.4-23.5-57.9-26.4-76.5c-25.5,28.5-52.3,38.3-64.7,41.5
		C5179.8-780.1,5179.3-776.3,5178.7-772.4z"/>
	<path id="XMLID_300_" class="st1" d="M5172-682.7L5172-682.7c0.1,0.6,2.4,57.1,49.3,119.5c12.4-9,39.8-32.9,56.2-77.3
		c-9.2-20.9-14.1-39.5-16.6-53.8c-19.1,23.2-36.9,32-38,32.5l-5.6,2.7l-4.6-4.2c-19.5-17.5-31.7-37.1-39.4-54.9
		C5172.5-706.9,5172-695,5172-682.7z"/>
	<path id="XMLID_299_" class="st1" d="M5282.2-100.2h-484c-18.2,0-32.9,14.7-32.9,32.9c0,18.2,14.7,32.9,32.9,32.9h484V-100.2z"/>
	<path id="XMLID_298_" class="st1" d="M6490.6-100.2h-484v65.8h484c18.2,0,32.9-14.7,32.9-32.9
		C6523.5-85.5,6508.8-100.2,6490.6-100.2z"/>
	<path id="XMLID_297_" class="st1" d="M6367.2-678.6c47.8,12.2,88,16,110.7,17.1c-23.1-26.3-56.9-57.5-106.5-98.4
		c-85.1-18.4-157.9-52.6-216.5-101.9c-8.4,3.8-16.8,7.6-25.5,11.3c-6.4,2.7-10.6,8.5-11.4,15c1.1,4.7,2.1,9.3,3.1,13.8
		c46.2,50.8,104,90.7,171.7,118.5c23.1,9.4,47.3,17.5,71.9,23.9L6367.2-678.6z"/>
	<path id="XMLID_296_" class="st1" d="M6624.2-841.2c32.4-2.4,59.4-6.3,78.5-9.7c-57.5-21.7-111.7-40.7-119.2-43.3
		c-77-0.7-170.3-15.5-269.4-62.5c-18.6,14.1-38.4,27.8-59.5,41.1c68.6,39.5,148.1,64,236.7,72.8h1.3l0.4,0.2
		C6535.5-838.4,6579.6-838,6624.2-841.2z"/>
	<path id="XMLID_295_" class="st1" d="M6805.7-1405.4L6805.7-1405.4c-59.6,34-131.1,64.2-213.4,80.2c-6.5,1.3-11.8,5.9-13.9,12.2
		c-4,11.9-10.1,28.4-18.8,48.3c213.7-9.1,354.5-127.2,407.9-180.9C6887.6-1420.3,6806.6-1405.6,6805.7-1405.4z"/>
	<path id="XMLID_294_" class="st1" d="M6341.9-592.6c-25-36-52.4-82.7-59.2-94.5c-60.1-25.1-112.5-59.4-156.3-102.2
		c4,24.2,8.1,57.4,8.9,95.4c30.8,26.4,68.4,49.5,112.2,68.8C6285.5-608.4,6320.1-598.1,6341.9-592.6z"/>
	<path id="XMLID_293_" class="st1" d="M6611.9-768.5c-51.4-26-111.8-51-122.9-55.6h-1.9l-0.4-0.4c-93.8-9.8-177.9-36.7-250-80.1
		c-20,11.9-41,23.3-63.2,34.1c55.7,44.8,124.3,76.1,204.1,93c29.8,6.3,61.2,10.6,93.3,12.8C6531-760.7,6582.2-764.9,6611.9-768.5z"
		/>
	<path id="XMLID_292_" class="st1" d="M6827-1318.9c-69.1,36.6-162.4,69.9-276,73c-9.1,19.2-20.4,40.7-34.1,63.8
		c90.1-0.7,174-14.2,249.5-40.2c2.9-1,5.7-1.9,8.4-3l1.6-0.6c96.5-34.9,157.9-83.2,189.4-113
		C6909.5-1323.2,6839.8-1319.4,6827-1318.9z"/>
	<path id="XMLID_291_" class="st1" d="M5716.6-548.4c-10.9-12.8-22.1-28.7-31-47.4c-9.6,15.3-20.9,30.8-34.2,45.7l-6.9,7.6l-6.9-7.6
		c-13.4-14.9-24.7-30.4-34.2-45.7c-9,18.7-20.1,34.6-31,47.4l0.9-0.1c0.1,0.8,10.7,79.3,71.3,123.7c60.8-44.5,71.2-122.9,71.3-123.7
		L5716.6-548.4z"/>
	<path id="XMLID_290_" class="st1" d="M6805.4-953c-63.5-13.9-168.6-32.9-179.9-35c-12.7,0.7-25.4,1.1-38.2,1.1
		c-66.5,0-134.3-9.9-203.1-29.5c-16.6,15.8-34.4,31.5-53.7,46.9c138.5,63.2,264.7,62.4,347.3,50.2
		C6735.1-927.8,6779.6-942.7,6805.4-953z"/>
	<path id="XMLID_289_" class="st1" d="M6686.2-1091.8c-46.6,7-95.7,10.5-147,10.5c-29.6,0-60-1.2-91.1-3.5
		c-14.7,17.7-30.8,35.6-48.5,53.5c154.9,42.1,304.3,32.8,444.8-27.4C6806.1-1064.1,6741-1074.6,6686.2-1091.8z"/>
	<path id="XMLID_288_" class="st1" d="M6194.7-629.5l1.3-0.3c-22.1-12.2-42.4-25.5-60.6-39.9c-0.3,22.3-1.9,45.7-5.3,69.7
		c4.6,2.9,9.3,5.8,14.2,8.5c28.1,15.8,55.1,25.6,72.4,30.9C6207.1-583.5,6199.6-609.6,6194.7-629.5z"/>
	<path id="XMLID_287_" class="st1" d="M5853.1-147c1.2-1.6,2.5-3.2,4-4.6c5-5,10.9-8.6,17.3-10.8c-6.1-9.9-8.9-21.1-9.9-31.5
		c-9.5,10.3-17.4,15.6-18.2,16.1l-6.3,4.1l-5.4-5.2c-5.7-5.5-10.8-11.3-15.4-17.2c-14.8,31.9-37.6,42.7-38.7,43.3l-5.8,2.7l-3.5-3.4
		c-9,17.2-21.4,28.2-31.1,34.7h31.6v-0.6c0-25,20.3-45.4,45.4-45.4C5831.8-164.8,5844.8-157.8,5853.1-147z"/>
	<path id="XMLID_286_" class="st1" d="M5327.6,11.6c14.7,0,26.7-12,26.7-26.7v-104.4c0-14.7-12-26.7-26.7-26.7
		c-14.7,0-26.7,12-26.7,26.7v104.4C5300.9-0.4,5312.8,11.6,5327.6,11.6z"/>
	<path id="XMLID_285_" class="st1" d="M5961.3,11.6c14.7,0,26.7-12,26.7-26.7v-104.4c0-14.7-12-26.7-26.7-26.7
		c-14.7,0-26.7,12-26.7,26.7v104.4C5934.5-0.4,5946.5,11.6,5961.3,11.6z"/>
	<path id="XMLID_284_" class="st1" d="M6111.4-860.8c3.1-2.8,6.6-5.1,10.7-6.8c310.7-131.6,414.3-378.7,438.7-451.4
		c4.2-12.6,15-22,28-24.6c192-37.4,323.7-153.4,379.5-211.7c-23.8,11.1-47.9,21.6-72.2,31.5c-1,0.5-1.7,0.7-1.8,0.8l0-0.1
		c-171.1,69.1-344.7,106.1-391.9,115.4c-4.9,1-9.1,4.2-11.4,8.7c-92.3,183.6-203.6,285.3-281.4,338.6
		c-67,45.8-120.4,64.4-142.3,70.6C6076-967.8,6096.8-913.4,6111.4-860.8z"/>
	<path id="XMLID_283_" class="st1" d="M6944-1205c-74.4,4.1-160.4,1.4-173.3,1c-79.2,27-167.2,40.7-261.8,40.7c-1.2,0-2.4,0-3.6,0
		c-12.5,19.6-26.7,40-43,60.8c132.5,8.6,251.2-4.5,352.9-39.2C6878.2-1163.2,6920.4-1188.4,6944-1205z"/>
	<path id="XMLID_282_" class="st1" d="M5562.8-197.6c24.5-25.3,32.3-44.3,34.1-49.3c-11.3-11.2-22.8-26.1-32-45.9
		c-0.7,1.7-1.2,2.7-1.4,3.1l-4.2,8.8l-8.6-4.6c-1.3-0.7-2.5-1.4-3.7-2.1c-2.1,7.7-6.2,18.5-14,30.8
		C5538.3-222.2,5554.2-204.7,5562.8-197.6z"/>
	<path id="XMLID_281_" class="st1" d="M5649.8-121.3l-5.4,2.4h0h62.6c-9.8-9.4-17.5-23.6-22.2-36.1
		C5668.6-135,5651.1-122.2,5649.8-121.3z"/>
	<path id="XMLID_280_" class="st1" d="M5604-154.9c-4.7,12.5-12.4,26.6-22.2,36.1h62.6h0l-5.4-2.4
		C5637.7-122.2,5620.2-135,5604-154.9z"/>
	<path id="XMLID_279_" class="st1" d="M5647.3-217.5l-2.9,0.7l-2.9-0.7c-1.1-0.4-13.9-4.8-29.7-16.7c-2.8,6.1-7.5,14.8-15.2,25.5
		c6.8,31.3,35.7,57.9,47.9,68c12.2-10.1,41.1-36.8,47.9-68c-7.7-10.6-12.4-19.4-15.2-25.5C5661.3-222.3,5648.5-217.9,5647.3-217.5z"
		/>
	<path id="XMLID_278_" class="st1" d="M5550.5-307.2c7.5-20,22.4-69.4,10.1-120.4c-15.4,20.7-31.3,35.1-32.5,36.3l-5.7,5.1l-6.1-4.6
		c-5-3.8-9.7-7.7-14-11.6c-1,13.7-3.6,26.1-7.3,37.4C5499.9-355.8,5516.8-328,5550.5-307.2z"/>
	<path id="XMLID_277_" class="st1" d="M5648.6-311.3l-4.2,1.8l-4.2-1.8c-2-1-35.5-18.2-57.6-50c-1.8,15.8-5,29.9-8.2,41.3
		c18.1,57.7,58.5,78.7,70,83.6c11.4-4.9,51.9-25.9,70-83.6c-3.3-11.4-6.5-25.5-8.3-41.3C5684.1-329.5,5650.6-312.3,5648.6-311.3z"/>
	<path id="XMLID_276_" class="st1" d="M5705.7-466.3c-12.6,21.5-30.6,43.6-56.1,60.7l-5.2,3.2l-5.2-3.2
		c-25.5-17.1-43.5-39.1-56.1-60.7c-2.5,6.3-5.6,12.5-9,18.4c4.4,12.7,7.1,25.3,8.6,37.7c5.3,43.5,48,71.9,61.7,80
		c13.7-8.1,56.4-36.5,61.7-80c1.5-12.3,4.2-25,8.6-37.7C5711.3-453.9,5708.2-460,5705.7-466.3z"/>
	<path id="XMLID_275_" class="st1" d="M5793.8-365.1c-3.7-11.2-6.4-23.7-7.3-37.4c-4.3,3.9-8.9,7.8-14,11.6l-6.1,4.6l-5.7-5.1
		c-1.2-1.1-17.1-15.6-32.5-36.3c-12.3,51.1,2.6,100.4,10.1,120.4C5772-328,5788.9-355.8,5793.8-365.1z"/>
	<path id="XMLID_274_" class="st1" d="M5291.9-750.8l0.5,0.2c0,0.1-0.1,0.3-0.2,0.4c4.4,7.5,9.4,15.1,15.1,22.8
		c12-8.7,37.7-31.2,54.3-72.4c-30.4-25.1-57.4-54.1-80.2-86.2c-5.9,15.1-12.6,28-19.7,39C5262.1-836.7,5265.2-796.6,5291.9-750.8z"
		/>
	<polygon id="XMLID_273_" class="st1" points="5771.8,-100.2 5644.4,-100.2 5644.4,-100.2 5517.1,-100.2 5517.1,-34.4 5644.4,-34.4 
		5644.4,-34.4 5771.8,-34.4 	"/>
	<path id="XMLID_272_" class="st1" d="M5760.1-15.7h-47c0.6,1.4,1.3,2.7,2,4.1c5.9,11.4,13.7,21.6,23.1,30.6
		C5748,10.1,5755.9-0.8,5760.1-15.7z"/>
	<path id="XMLID_271_" class="st1" d="M5641.4,38.6c15.2-15.8,25.2-26.3,32-41c2.1-4.5,3.9-8.9,5.6-13.4h-34.5h0h-40.9
		c2,4.3,4.2,8.6,6.4,12.8C5621.7,19.2,5634.2,32.3,5641.4,38.6z"/>
	<path id="XMLID_270_" class="st1" d="M5528.7-15.7c4.2,15,12,25.8,21.8,34.6c9.3-8.8,17-18.9,22.8-30.1c0.8-1.5,1.5-3,2.2-4.5
		H5528.7z"/>
	<path id="XMLID_269_" class="st1" d="M5377.2-674.2c-13.3-27.9-19.4-55.3-22.3-75c-21.6,29.5-43.9,41.8-45.3,42.5l-6.8,3.7
		l-4.9-6.1c-5.4-6.8-10.3-13.5-14.7-20.2c-2.1,4.2-4.2,8.1-6.4,11.9c0.9,15.9,7,65.3,45.5,116.8
		C5334.5-609.3,5360.6-632.2,5377.2-674.2z"/>
	<path id="XMLID_268_" class="st1" d="M5644.4,87.8c12-21.3,33.7-32.9,55-44.2c8-4.2,15.8-8.4,23.1-13c-9.9-9.9-18.1-21.1-24.5-33.3
		c-0.8-1.6-1.6-3.2-2.3-4.8c-1.7,4.3-3.5,8.7-5.5,13c-8.1,17.7-19.8,29.8-35.9,46.5l-10.6,11.1l-6.4-4.1c-1-0.6-23.6-15.2-43.8-53.1
		c-1.4-2.5-2.7-5.2-4-7.8c-6.2,11.8-14.2,22.5-23.8,32.1c7.5,4.8,15.5,9,23.7,13.4C5610.7,54.9,5632.4,66.5,5644.4,87.8z"/>
	<path id="XMLID_267_" class="st1" d="M5371.1-775.6c0.6,14.4,6.3,97.4,64.4,150.2c13.2-12.4,45.7-46.8,62.4-97.5
		c-43.9-15.3-84.7-37.4-121.1-64.8C5375-783.5,5373.1-779.5,5371.1-775.6z"/>
	<path id="XMLID_266_" class="st1" d="M5755.8-256.9c-7.8-12.3-11.9-23-14-30.8c-1.2,0.7-2.5,1.4-3.7,2.1l-8.6,4.6l-4.2-8.8
		c-0.2-0.3-0.7-1.4-1.4-3.1c-9.1,19.8-20.7,34.8-32,45.9c1.8,5,9.6,24,34.1,49.3C5734.5-204.7,5750.5-222.1,5755.8-256.9z"/>
	<path id="XMLID_265_" class="st1" d="M5144.6-591.5c4.8-2.7,9.5-5.6,14.2-8.5c-3.4-24-5-47.4-5.3-69.7
		c-18.2,14.4-38.5,27.7-60.6,39.9l1.3,0.3c-5,19.8-12.4,45.9-21.9,68.9C5089.5-565.9,5116.6-575.7,5144.6-591.5z"/>
	<path id="XMLID_264_" class="st1" d="M5889.2,11.6c3.1,0,6.1-0.5,8.9-1.5c10.6-3.8,17.7-13.9,17.7-25.2v-104.4
		c0-14.7-12-26.7-26.7-26.7c-7.2,0-13.9,2.8-18.9,7.8c-5,5-7.8,11.8-7.8,18.9v104.4C5862.5-0.4,5874.5,11.6,5889.2,11.6z"/>
	<path id="XMLID_263_" class="st1" d="M5463,75.7c-99.4,105-128.5,208.6-136.9,261.8c-10.9,78.8,3.9,155.7,10.5,184
		c61.1-38.8,98.2-170.5,104.3-193.6c6.5-70.2,25.4-149.2,72.2-206.7C5495,106.3,5477.5,91.7,5463,75.7z"/>
	<path id="XMLID_262_" class="st1" d="M5430.2,18.3c-8.1,7.4-18.8,11.9-30.6,11.9c-4.1,0-8.2-0.6-12.1-1.7
		c-146.2,87.8-168.5,308-171.8,370.7c60.3-40.2,102-118.1,106.1-125.9c18.2-57.9,55-134.3,129.3-212.1
		C5441.5,48.3,5434.2,34.2,5430.2,18.3z"/>
	<path id="XMLID_261_" class="st1" d="M5644.4,327.9c0-0.4-18.6-96.9-56.8-137c-21.2,40.3-26.9,93-26.9,137.5
		c5.1,182.9,61.2,288.8,83.8,324.2c22.5-35.4,78.7-141.3,83.8-324.2c-0.1-44.5-5.7-97.2-26.9-137.5
		C5667.3,226.1,5644.4,327.9,5644.4,327.9z"/>
	<path id="XMLID_260_" class="st1" d="M5574.5,176c-14.8-15.9-31.1-29.8-47.1-43c-43.2,53.1-61.1,127.6-67.5,194.6l0,0
		c-0.3,2.8-0.5,5.5-0.8,8.2c-5.5,66.8,0,124.7,2.2,144c9,62.5,27.2,101.8,38,120.7c37.3-89.2,42-214.2,42.4-257.9
		C5540.7,291.4,5546,225.1,5574.5,176z"/>
	<path id="XMLID_259_" class="st1" d="M5901.3,28.6c-3.9,1.1-8,1.7-12.1,1.7c-11.8,0-22.5-4.6-30.6-11.9c-4,15.9-11.3,30-20.9,42.9
		c74.2,77.8,111,154.2,129.3,212.1c4,7.7,45.9,85.7,106.1,125.9C6069.7,336.6,6047.4,116.4,5901.3,28.6z"/>
	<path id="XMLID_258_" class="st1" d="M5825.8,75.7c-14.5,16-32,30.6-50.1,45.4c46.9,57.5,65.7,136.6,72.2,206.7
		c6.1,23.2,43.2,154.8,104.3,193.6c6.6-28.2,21.4-105.1,10.5-183.9C5954.3,284.5,5925.2,180.8,5825.8,75.7z"/>
	<path id="XMLID_257_" class="st1" d="M5828.8,327.6L5828.8,327.6c-6.4-67-24.2-141.5-67.4-194.6c-16,13.2-32.2,27.2-47.1,43
		c28.5,49,33.8,115.4,32.6,166.7c0.4,43.7,5.1,168.7,42.4,257.9c10.8-18.9,29-58.1,38-120.6c2.3-19.7,8-79.6,1.9-148.2
		C5829,330.3,5828.9,329,5828.8,327.6z"/>
	<path id="XMLID_256_" class="st1" d="M5197.1-302.3c13.9-32.8,25.4-67.5,34.3-103.1c-9.6-17.1-19.3-35.5-29.1-55.6
		c-19.9,46.7-47.4,90.1-82,129.3c-1.2,14.8-4.9,85.3,25.4,125.7C5155.9-221,5176.7-254,5197.1-302.3z"/>
	<path id="XMLID_255_" class="st1" d="M5126.1-561.2c-37.3,17.1-67.2,23.6-68.7,24l-19.4,4.2l9.1-17.6c10.3-19.8,18.8-46,24.9-68.3
		c-6.8,3.4-13.8,6.7-20.9,9.8c-67.7,94.4-172,153.2-268.1,189.3l0.9,1c-0.7,0.6-65.7,62.3-71.2,141.5c23.1-3.3,82.2-14.2,152-46.5
		C4942.2-359.6,5048-429.5,5126.1-561.2z"/>
	<path id="XMLID_254_" class="st1" d="M5404.7-221c-4-7.2-7.6-15.4-10.4-24.4c-0.1,0.2-0.3,0.4-0.4,0.6l-4.1,5.6l-6.6-2.4
		c-1.2-0.4-14.1-5.2-29.5-14.7c21.6,30.2,37.8,55.7,45.3,83.4C5408.8-189.7,5406.1-212.7,5404.7-221z"/>
	<path id="XMLID_253_" class="st1" d="M5016.5-594.9c-50.3,18.8-88.2,25.7-90.1,26l-23.9,4.2l14.9-19.1
		c19.6-25.2,45.3-66.9,60.7-92.6c-15.4,5.5-31.1,10.4-47,14.6l0,0l-0.5,0.1c-101.1,77.9-213.8,117.6-315.6,136.8
		c-3.9,1.9-95.5,46.5-137.6,150.5c32.2-2,116.1-9.5,211.9-35.1C4792.2-436.8,4928.3-490.9,5016.5-594.9z"/>
	<path id="XMLID_252_" class="st1" d="M4980.8-371.4c-3.5,16.2-19.7,93.9-17,139.6c24.6-12.7,84.9-47.6,140.5-109.9
		c38.1-42.7,67.4-90.5,87.1-142.2c-4.6-10.2-8.8-20.6-12.4-31.1c0,0,0,0,0,0h0c-7.5-21.5-13.1-43.4-17-65c-1.9,1.2-3.9,2.3-5.8,3.4
		C5106-483,5042.2-417.2,4980.8-371.4z"/>
	<path id="XMLID_251_" class="st1" d="M5382.9-261.8c25.7-39.8,17.3-77.3,15.8-83c-3.9-10.6-6.3-20.5-7.7-28.7
		c-0.9,0.9-1.8,1.9-2.8,2.8l-5.2,4.9l-6.1-3.7c-0.4-0.2-2.8-1.7-6.4-4.5c0.4,20.7-3.2,49.3-22.6,69.8l-3.3,3.5l-4.8-0.7
		c-0.6-0.1-5.1-0.8-11.8-2.8C5343.6-281.6,5370.6-267.4,5382.9-261.8z"/>
	<path id="XMLID_250_" class="st1" d="M5337.8-320.8c19.3-25,13.9-63.8,12.2-73.3c-5.6-6.7-11.2-14.8-16.3-24.4
		c-4.9,18.3-13.5,37.1-28.5,51.3l-4.6,4.4l-5.7-2.7c-1-0.5-13.1-6.2-28.6-17.5c5.8,9.5,11.6,18.6,17.2,27.3
		C5301.8-332.1,5327.2-323.4,5337.8-320.8z"/>
	<path id="XMLID_249_" class="st1" d="M5301.6-296.1c-10.5-14.7-21.6-30.5-33-48c-3.9-5.1-7.6-10.7-10.9-17
		c-4.3-6.9-8.7-14-13.1-21.4c-8.1,29.2-17.9,57.6-29.3,84.8c5,27.9,21.4,93.3,47.5,119.8C5274-195.2,5298.6-239.1,5301.6-296.1z"/>
	<path id="XMLID_248_" class="st1" d="M6073.5-297.7c-11.4-27.2-21.2-55.7-29.3-84.8c-4.4,7.4-8.7,14.5-13.1,21.4
		c-3.3,6.3-7,12-10.9,17c-11.4,17.5-22.5,33.4-33,48c3,57.2,27.6,101,38.8,118.2C6052.1-204.3,6068.5-269.8,6073.5-297.7z"/>
	<path id="XMLID_247_" class="st1" d="M6820.3-1123.8c-29.2,9.9-59.8,18-91.6,24.5c73,18.2,149.7,25.8,150.6,25.9l32.9,3.2
		l-29.8,14.4c-26.2,12.7-52.7,23.6-79.5,32.8c232.3-16.4,390.5-74.3,485.4-122.7c65.9-33.6,110.3-66.9,136.3-89.3
		c-157.6,47.5-327.8,57-334.4,57.3C7012.8-1153.3,6923-1133.7,6820.3-1123.8z"/>
	<path id="XMLID_246_" class="st1" d="M7095.9-1052.4l-0.1-0.2c-99.3,27.3-223.6,48.5-375.4,52.3c-10,2.1-20.1,3.8-30.2,5.4
		c48.8,9.2,113.7,21.9,146.7,30.1l23.7,5.9l-21.6,11.4c-1.3,0.7-18.3,9.5-48,19.8c208.3,17.1,357.7-23.7,448.4-62.7
		c72.6-31.2,119.1-65.6,141-84C7241.4-1087.8,7097.4-1052.7,7095.9-1052.4z"/>
	<path id="XMLID_245_" class="st1" d="M7111.2-927.5l-8.7,0c-60.8,13.4-132.6,22.5-215.4,22.5c-44.5,0-92.1-2.6-142.9-8.6
		c-18.6,4.8-39.7,9.2-62.9,12.7c-14.4,2.1-30,3.9-46.8,5.2c28.9,10.4,67.5,24.5,104.5,38.8l26.9,10.4l-27.9,7.3
		c-1.4,0.4-28.4,7.4-72.2,12.7c155.4,51.8,317.5,29.7,429.8,0.3c99.3-26,176.6-61.7,209.2-77.9
		C7244-927.9,7155.7-927.7,7111.2-927.5z"/>
	<path id="XMLID_244_" class="st1" d="M5905.7-241.6l-6.6,2.4l-4.1-5.6c-0.2-0.2-0.3-0.4-0.4-0.6c-2.8,9.1-6.4,17.2-10.4,24.4
		c-1.4,8.3-4.1,31.3,5.7,48.1c7.6-27.7,23.7-53.2,45.3-83.4C5919.8-246.8,5906.9-242,5905.7-241.6z"/>
	<path id="XMLID_243_" class="st1" d="M5842-198c6.2-5.4,16.1-15.4,24.5-29.9c0.1-0.3,0.1-0.5,0.1-0.6l0.2,0
		c6.3-10.9,11.6-24.5,13.9-40.5c-6.3-13.8-9.5-27.1-10.9-38.7c-4,5.3-8.5,10.5-13.6,15.5l-5.7,5.6l-6.4-4.8
		c-0.5-0.3-2.7-2.1-6.1-5.2c-5.4,21.5-15,37.5-24.2,48.7c1.1,5.2,3.8,15,11,27.1C5829.5-212.9,5835.2-205.3,5842-198z"/>
	<path id="XMLID_242_" class="st1" d="M6995.6-1474.9l30.6-11.2l-20.1,25.7c-1.3,1.6-24,30.4-67.5,66.6
		c250.6-88.8,415.5-219.9,511.5-317.3c68.6-69.6,112.1-131.6,135.3-168.9c-146.6,101.1-418.1,231.8-573.6,303.7
		c-9.3,11.6-64.9,78.7-160,142.2C6890.5-1442.7,6945.7-1456.7,6995.6-1474.9z"/>
	<path id="XMLID_241_" class="st1" d="M6930-778.9l0-0.2c-20.1,1.5-40.7,2.4-61.7,2.4c-79.3,0-163.5-12.2-245-45.8
		c-19.2,1.4-38.4,2-57.5,2c-7.2,0-14.4-0.1-21.5-0.3c30.8,13.6,70.2,31.8,101.5,49.1l22.3,12.3l-25,5c-2.5,0.5-51,9.9-121.5,9.9
		c-4.6,0-9.2-0.1-14-0.1c108.2,58.3,223,77.8,324.5,79.5l0-0.2c0.3,0,1,0.1,2,0.2c51.5,0.7,99.4-3.1,141.3-8.9
		c107.6-14.8,193.2-43.9,230.3-58C7060.9-793.7,6931.4-779.1,6930-778.9z"/>
	<path id="XMLID_240_" class="st1" d="M7246.5-1517.1l-2.8-4.2c-94,60.1-210.2,118.1-351.2,162.6c-2.3,1.6-4.6,3.2-6.9,4.7
		c-6.6,4.5-13.6,9-21,13.6c38.2-3.8,94.9-11.8,130.2-28.6l33.9-16.1l-22.5,30.1c-2.3,3.1-48,63-150.8,115.3
		c252.5-52.2,434-162.5,545.1-250c86.3-67.9,143.3-131.8,172.8-168.4c-63.8,30.7-155.3,68.5-225.5,97.4
		C7299.3-1540.6,7253.5-1521.8,7246.5-1517.1z"/>
	<path id="XMLID_239_" class="st1" d="M6859.5-1221.5c36.2-0.1,77.7-1.2,113-4.3l25.9-2.3l-18.5,18.2c-1.5,1.5-30.7,29.6-93.1,59.2
		c218.9-31.9,371.1-108.3,463.1-169.7c63.3-42.3,106.8-83,132.2-110.1c-96.9,40.5-251.5,76.8-260.2,78.9
		C7123.6-1299.3,7002.9-1251.1,6859.5-1221.5z"/>
	<path id="XMLID_238_" class="st1" d="M4794.3-642.3c-2.2,0-3.5,0-3.8,0l-18.3-0.5l11.2-14.5c20.2-26.1,50.7-56.3,97-95.7
		c-19.2,3-38.8,5.3-58.8,6.7c-120.5,74.3-251.3,98.2-365.3,99.9c-18.4,2.6-137.2,21.7-221.5,99.1c34.2,7.1,118.5,21.9,223.5,19.8
		c116.2-2.4,280.5-26.5,426-123.8C4838.9-643.1,4805.4-642.3,4794.3-642.3z"/>
	<path id="XMLID_237_" class="st1" d="M6005.6-355.8c5.6-8.6,11.3-17.6,17.1-27.1c-15.5,11.3-27.6,17-28.6,17.5l-5.7,2.7l-4.6-4.4
		c-15-14.3-23.6-33-28.6-51.3c-5,9.6-10.7,17.7-16.3,24.4c-1.7,9.5-7.1,48.3,12.1,73.3C5961.6-323.5,5987.2-332.3,6005.6-355.8z"/>
	<path id="XMLID_236_" class="st1" d="M5960.7-304.1c-6.7,2-11.2,2.7-11.8,2.8l-4.8,0.7l-3.3-3.5c-19.4-20.6-23-49.2-22.6-69.8
		c-3.6,2.8-6,4.3-6.4,4.5l-6.1,3.7l-5.2-4.9c-1-0.9-1.9-1.9-2.8-2.8c-1.4,8.2-3.8,18.1-7.7,28.7c-1.5,5.7-9.8,43.2,15.9,83
		C5918.3-267.4,5945.2-281.6,5960.7-304.1z"/>
	<path id="XMLID_235_" class="st1" d="M6143.2-205.9c30.3-40.4,26.5-110.9,25.4-125.7c-34.6-39.2-62.1-82.6-82-129.3
		c-9.8,20-19.5,38.5-29.1,55.6c8.9,35.6,20.4,70.2,34.3,103.1C6112.1-254,6132.9-221,6143.2-205.9z"/>
	<path id="XMLID_234_" class="st1" d="M6467.2-746.4c-20-1.4-39.6-3.7-58.8-6.7c46.3,39.4,76.8,69.6,97,95.7l11.2,14.5l-18.3,0.5
		c-0.3,0-1.6,0-3.8,0c-11,0-44.5-0.8-90-9.1c145.7,97.4,310.2,121.5,426.5,123.8c104.8,2.1,188.9-12.6,223-19.8
		c-84.3-77.5-203-96.6-221.4-99.1C6718.6-648.2,6587.8-672.1,6467.2-746.4z"/>
	<path id="XMLID_233_" class="st1" d="M6673.7-524.8c-101.8-19.2-214.5-58.9-315.6-136.8l-0.6-0.2c-15.9-4.2-31.5-9.1-46.9-14.6
		c15.4,25.7,41.1,67.4,60.7,92.6l14.9,19.1l-23.9-4.2c-1.9-0.3-39.8-7.2-90.1-26c88.1,104,224.3,158.1,327.1,185.5
		c95.7,25.5,179.7,33,211.9,35.1C6769.2-478.6,6677.6-523,6673.7-524.8z"/>
	<path id="XMLID_232_" class="st1" d="M6325-231.8c2.8-45.7-13.4-123.4-17-139.6c-61.4-45.9-125.2-111.6-175.4-205.3
		c-2-1.1-3.9-2.3-5.8-3.4c-4,21.6-9.5,43.5-17,65h0c0,0,0,0,0,0c-3.6,10.4-7.8,20.8-12.4,31.1c19.7,51.7,49,99.5,87.1,142.2
		C6240.3-279.3,6300.4-244.4,6325-231.8z"/>
	<path id="XMLID_231_" class="st1" d="M6504.8-418.8l0.9-1c-96.1-36.1-200.4-94.9-268.1-189.3c-7.1-3.2-14.1-6.5-20.9-9.8
		c6.1,22.3,14.6,48.5,24.9,68.3l9.1,17.6l-19.4-4.2c-1.5-0.3-31.4-6.9-68.7-24c78.2,132,184.3,201.9,261.9,237.7
		c69.7,32.2,128.3,43,151.3,46.2C6570.5-356.7,6505.4-418.2,6504.8-418.8z"/>
	<path id="XMLID_230_" class="st1" d="M5390.7,10.1c2.9,1,5.9,1.6,9,1.6c14.7,0,26.7-12,26.7-26.7v-104.4c0-7.2-2.8-13.9-7.8-18.9
		c-5-5-11.8-7.8-18.9-7.8c-14.7,0-26.7,12-26.7,26.7v104.4C5372.9-3.8,5380.1,6.3,5390.7,10.1z"/>
	<path id="XMLID_229_" class="st1" d="M5644.4-1326.3c81.8-72.7,89.6-201.5,90.2-233.5c-29.4-6.4-59.6-9.7-90.2-9.7
		c-30.6,0-60.8,3.3-90.2,9.7C5554.8-1527.8,5562.6-1398.9,5644.4-1326.3z"/>
	<path id="XMLID_228_" class="st1" d="M4454.7-665c1-0.1,1.7-0.2,2-0.2l0,0.2c101.4-1.7,216.2-21.2,324.5-79.5
		c-4.7,0.1-9.4,0.1-14,0.1c-70.6,0-119.1-9.5-121.5-9.9l-25-5l22.3-12.3c31.3-17.3,70.7-35.5,101.5-49.1c-7.2,0.2-14.3,0.3-21.5,0.3
		c-19,0-38.2-0.7-57.5-2c-81.4,33.6-165.7,45.8-245,45.8c-21,0-41.6-0.9-61.7-2.4l0,0.2c-1.4-0.2-131.2-14.6-275.7,47
		c37.2,14.1,123,43.4,230.8,58.1C4355.7-668.1,4403.4-664.3,4454.7-665z"/>
	<path id="XMLID_227_" class="st1" d="M5454.5-1338.6c-34.5-53.5-43.5-127-45.8-159.6c-40,26.5-75.6,59.8-105.1,98.9
		c10.2,5.3,20.8,10.1,31.6,14C5372.4-1371.6,5413.9-1355.8,5454.5-1338.6z"/>
	<path id="XMLID_226_" class="st1" d="M5953.7-1385.2c10.8-4,21.4-8.7,31.6-14c-29.5-39.1-65.1-72.4-105.1-98.9
		c-2.3,32.6-11.3,106.1-45.8,159.6C5874.9-1355.8,5916.5-1371.6,5953.7-1385.2z"/>
	<path id="XMLID_225_" class="st1" d="M5218-1143.1c0,30.8,3.3,60.9,9.6,89.9c4.3,17.9,10.6,34.7,18.8,50.1l0.6,0.1l-0.2,0.5
		c29.8,55.2,83.9,93.1,154.4,105.6c74.8,13.3,150.8-6.7,180.4-45.9c-18.2-35-33.9-82.4-34.3-142.2c-25.4,45.8-74.3,76.3-129.7,76.3
		c-81.8,0-148.3-66.5-148.3-148.3c0-41.6,17.1-80.4,47.2-108.5c-23.6-16.1-44.2-33.1-62.1-50.4
		C5230.3-1261.3,5218-1203.3,5218-1143.1z"/>
	<path id="XMLID_224_" class="st1" d="M5433.6-1108.1c33.7,0,61.4-25,65.2-57.9c-29.6-17.6-65.4-36.9-108.4-57.5
		c-14.3,12.4-22.7,30.6-22.7,49.6C5367.8-1137.6,5397.3-1108.1,5433.6-1108.1z"/>
	<path id="XMLID_223_" class="st1" d="M5288-1156.9c0,71.5,58.2,129.7,129.7,129.7c64,0,118.1-46.5,128-109.1
		c-9-6.1-18.9-12.6-29.7-19.3c-8.3,38.1-41.9,66.1-82.4,66.1c-46.6,0-84.4-37.9-84.4-84.4c0-21.9,8.6-42.8,23.5-58.4
		c-14.1-7.2-27.4-14.7-40-22.6C5304.2-1230.1,5288-1194.8,5288-1156.9z"/>
	<path id="XMLID_222_" class="st1" d="M5393.2-1242.9c169.8,80.8,231.5,142,251.3,166.7c19.8-24.7,81.5-85.9,251.3-166.7
		c149.4-71.1,209.8-186.5,232.4-248.8c-33.9,38.4-94.6,97.2-168,124c-66.4,24.2-268.3,98-307.6,165.4l-8,14.4l-8-14.4
		c-39.3-67.4-241.3-141.2-307.6-165.4c-73.3-26.8-134-85.4-167.9-123.9C5183.6-1429.2,5244.1-1313.8,5393.2-1242.9z"/>
	<path id="XMLID_221_" class="st1" d="M5855.2-1108.1c36.3,0,65.8-29.5,65.8-65.8c0-19.1-8.4-37.2-22.7-49.6
		c-43,20.6-78.7,39.9-108.4,57.5C5793.8-1133.1,5821.5-1108.1,5855.2-1108.1z"/>
	<path id="XMLID_220_" class="st1" d="M5743.2-1136.3c9.9,62.6,64,109.1,128,109.1c71.5,0,129.7-58.2,129.7-129.7
		c0-37.9-16.2-73.2-44.7-98c-12.5,7.8-25.8,15.4-40,22.6c14.9,15.6,23.5,36.5,23.5,58.4c0,46.5-37.9,84.4-84.4,84.4
		c-40.4,0-74.1-28-82.4-66.1C5762.1-1148.9,5752.2-1142.4,5743.2-1136.3z"/>
	<path id="XMLID_219_" class="st1" d="M5949.4-455.8L5949.4-455.8c-0.2-3.7-0.3-7.1-0.3-10.3l-3.9-2.1c-1.9-1-28.1-15.5-48.9-50.9
		c-7.8,18.1-18.2,33.1-27.4,44.2c-0.5,9.7,0.8,45.7,39,85.3C5918.5-398.1,5940.8-419.7,5949.4-455.8z"/>
	<path id="XMLID_218_" class="st1" d="M5948.2-488.3c47.8-49.2,58.8-100.4,60.9-113.2c-3.1-5.2-6-10.9-8.8-16.9
		c-6.6,11.8-14.6,24-24.4,36.2l-4.9,6.1l-6.8-3.7c-1.7-0.9-38.8-21.4-63.8-73.6c-3.2,5.1-6.6,10.2-10.3,15.2
		c-2.6,40.2,4.3,70.9,14.4,94l0.3,0.1c0,0.1-0.1,0.2-0.1,0.3C5918.5-512.3,5938.5-495.2,5948.2-488.3z"/>
	<path id="XMLID_217_" class="st1" d="M5851.6-456.6c-2.5,2.3-4.1,3.6-4.4,3.8l-6.4,5.1l-5.9-5.6c-2.3-2.2-4.5-4.4-6.6-6.5
		c-4.5,10.1-11.8,23.6-23.3,37.8c-3.2,58.6,30,96.8,44.2,110.3c27.4-31,31.4-69.4,32-80.4C5861.6-417.1,5854.2-440.3,5851.6-456.6z"
		/>
	<path id="XMLID_216_" class="st1" d="M6056.1-443.8c-10.4,6.3-18,8.3-18.8,8.4l-6.1,1.4l-3.6-5.1c-21.7-30.5-31.3-55.8-35.5-74
		c-6.6,10-14.5,20.2-23.7,30.5c-0.6,6.6-4.9,64.1,23.7,97.1C6004.7-392.5,6035.1-411.8,6056.1-443.8z"/>
	<path id="XMLID_215_" class="st1" d="M6092.3-521.4L6092.3-521.4c8.9-25.4,14.9-51.3,18.7-76.7c-8.3,16.7-19.3,34.8-34,53.3
		l-4.9,6.1l-6.9-3.7c-1.3-0.7-21.3-11.8-41.8-37.9c-3,10.8-7.9,24.7-15.7,40.3c-0.4,6.6-0.4,37.9,31,84.4
		C6050.2-460.7,6076-476.6,6092.3-521.4z"/>
	<path id="XMLID_214_" class="st1" d="M5707.2-942.6c29.6,39.2,105.6,59.2,180.4,45.9c70.5-12.5,124.6-50.4,154.4-105.6l-0.2-0.6
		l0.6-0.1c8.2-15.4,14.5-32.2,18.8-50.1c6.3-29,9.6-59.1,9.6-89.9c0-60.2-12.2-118.2-36.4-172.6c-17.9,17.2-38.5,34.3-62.1,50.4
		c30.1,28,47.2,66.9,47.2,108.5c0,81.8-66.5,148.3-148.3,148.3c-55.4,0-104.2-30.5-129.7-76.3C5741-1025,5725.4-977.6,5707.2-942.6z
		"/>
	<path id="XMLID_213_" class="st1" d="M6116.8-682.7c-0.1-12.3-0.5-24.2-1.2-35.5c-7.7,17.8-20,37.4-39.4,54.9l-4.6,4.2l-5.6-2.7
		c-1.2-0.6-19-9.3-38-32.5c-2.6,14.3-7.4,33-16.6,53.8c16.4,44.4,43.8,68.2,56.2,77.3C6114.4-625.5,6116.8-682.1,6116.8-682.7
		L6116.8-682.7z"/>
	<path id="XMLID_212_" class="st1" d="M5492.3-1321.9c65.9,30.3,124.6,64.1,152.1,98.6c27.5-34.4,86.2-68.3,152.1-98.6
		c55.8-51.5,64.4-162,65.6-187.7c-33.9-20.2-70.6-35.5-108.9-45.7c-1,41.2-11.7,173.8-102.9,248.5l-5.9,4.9l-5.9-4.9
		c-91.2-74.7-101.9-207.2-102.9-248.5c-38.3,10.2-75,25.6-108.9,45.7C5427.9-1483.8,5436.5-1373.4,5492.3-1321.9z"/>
	<path id="XMLID_211_" class="st1" d="M4402-1150.6c-62.5-29.6-91.6-57.7-93.1-59.2l-18.5-18.2l25.9,2.3c35.3,3.1,76.8,4.1,113,4.3
		c-143.3-29.7-264-77.8-362.3-130c-8.8-2.1-163.4-38.4-260.2-78.9c25.5,27,68.9,67.7,132.2,110.1
		C4030.9-1258.8,4183.2-1182.5,4402-1150.6z"/>
	<path id="XMLID_210_" class="st1" d="M4664.6-841.2c44.5,3.2,88.6,2.8,131.2-1.4l0.4-0.2h1.4c88.5-8.9,168.1-33.4,236.7-72.8
		c-21.1-13.2-40.9-27-59.5-41.1c-99.1,46.9-192.4,61.8-269.4,62.5c-7.4,2.6-61.6,21.6-119.2,43.3
		C4605.2-847.5,4632.3-843.6,4664.6-841.2z"/>
	<path id="XMLID_209_" class="st1" d="M4485.9-1022.9c-26.8-9.2-53.3-20.1-79.5-32.8l-29.8-14.4l32.9-3.2
		c0.9-0.1,77.6-7.8,150.6-25.9c-31.8-6.4-62.4-14.6-91.6-24.5c-102.7-9.9-192.5-29.5-269.9-53.8c-6.6-0.3-176.8-9.8-334.4-57.3
		c25.9,22.4,70.3,55.7,136.3,89.3C4095.4-1097.2,4253.6-1039.4,4485.9-1022.9z"/>
	<path id="XMLID_208_" class="st1" d="M4818-764.8c32.1-2.2,63.5-6.5,93.3-12.8c79.8-16.9,148.4-48.2,204.1-93
		c-22.2-10.8-43.2-22.2-63.2-34.1c-72.1,43.4-156.2,70.3-250,80.1l-0.4,0.4l-1.9,0c-11,4.5-71.5,29.5-122.9,55.6
		C4706.7-764.9,4757.9-760.7,4818-764.8z"/>
	<path id="XMLID_207_" class="st1" d="M4433.4-1239.6c-102.9-52.3-148.6-112.3-150.9-115.3l-22.5-30.1l33.9,16.1
		c35.2,16.7,91.9,24.8,130.2,28.6c-7.4-4.6-14.4-9.1-21-13.6c-2.3-1.6-4.6-3.2-6.9-4.7c-141-44.5-257.2-102.5-351.2-162.6l-2.8,4.2
		c-7.1-4.7-52.9-23.6-101.3-43.5c-70.1-28.9-161.6-66.6-225.4-97.4c29.6,36.7,86.9,100.8,173.4,168.8
		C4000-1401.8,4181.2-1291.8,4433.4-1239.6z"/>
	<path id="XMLID_206_" class="st1" d="M4497.7-927.7c-29.7-10.3-46.7-19.1-48-19.8l-21.6-11.4l23.7-5.9c33-8.3,97.9-20.9,146.7-30.1
		c-10.1-1.6-20.2-3.4-30.2-5.4c-151.7-3.8-276.1-25-375.4-52.3l-0.1,0.2c-1.5-0.4-145.5-35.4-284.6-22c22.1,18.5,69,53.2,142,84.4
		C4140.9-951.2,4290-910.6,4497.7-927.7z"/>
	<path id="XMLID_205_" class="st1" d="M4622.9-826.6c-43.8-5.4-70.8-12.3-72.2-12.7l-27.9-7.3l26.9-10.4
		c37-14.3,75.6-28.4,104.5-38.8c-16.8-1.2-32.4-3-46.8-5.2c-23.2-3.5-44.2-7.9-62.9-12.7c-50.8,6-98.4,8.6-142.9,8.6
		c-82.8,0-154.6-9.1-215.4-22.5l-8.7,0c-44.5-0.2-132.8-0.4-193.6,23.4c32.6,16.3,110.3,52.1,209.7,78
		C4305.8-796.8,4467.7-774.8,4622.9-826.6z"/>
	<path id="XMLID_204_" class="st1" d="M4700-1343.5c13.1,2.5,23.8,12,28,24.6c24.4,72.6,128,319.8,438.7,451.4c4,1.7,7.6,4,10.7,6.8
		c14.6-52.6,35.4-107,44.1-128.9c-21.9-6.3-75.3-24.8-142.3-70.6c-77.8-53.2-189.1-154.9-281.4-338.5c-2.3-4.5-6.5-7.8-11.5-8.8
		c-47.3-9.3-220.9-46.3-391.9-115.4l0,0.1c-0.2-0.1-0.8-0.3-1.8-0.8c-24.2-9.8-48.4-20.3-72.1-31.4
		C4376.5-1496.9,4508.3-1380.9,4700-1343.5z"/>
	<path id="XMLID_203_" class="st1" d="M4350.2-1393.8c-43.5-36.2-66.2-65-67.5-66.6l-20.1-25.7l30.6,11.2
		c49.9,18.2,105.1,32.1,143.7,40.8c-95.1-63.5-150.7-130.6-160-142.2c-155.5-71.9-427-202.7-573.6-303.7
		c23.4,37.5,67.1,99.8,135.9,169.5C3935.3-1613.2,4099.9-1482.4,4350.2-1393.8z"/>
	<path id="XMLID_202_" class="st1" d="M4512.5-1225.8L4512.5-1225.8l1.6,0.6c2.7,1,5.5,2,8.3,2.9c75.6,26,159.4,39.5,249.5,40.2
		c-13.8-23-25-44.6-34.1-63.8c-113.7-3.2-207-36.4-276-73c-12.7-0.6-82.5-4.4-138.7-19.9C4354.5-1308.9,4416-1260.7,4512.5-1225.8z"
		/>
	<path id="XMLID_201_" class="st1" d="M4810.9-661.4c22.8-1.2,63.2-5,111.1-17.2l2.1-0.6c24.6-6.4,48.8-14.4,71.9-23.9
		c67.7-27.8,125.5-67.7,171.7-118.5c0.9-4.5,2-9.1,3.1-13.8c-0.7-6.5-4.9-12.3-11.4-15c-8.7-3.7-17.1-7.4-25.5-11.3
		c-58.7,49.3-131.4,83.6-216.5,101.9C4867.9-718.9,4834-687.7,4810.9-661.4z"/>
	<path id="XMLID_200_" class="st1" d="M4696.5-1325.3c-82.3-16-153.8-46.2-213.4-80.2l0,0c-0.9-0.2-82-14.8-162-40.3
		c19.5,19.8,50.9,48.3,93.1,76.7c66.6,44.8,174.3,98.2,314.9,104.2c-8.7-19.8-14.8-36.3-18.7-48.2
		C4708.3-1319.3,4703-1324,4696.5-1325.3z"/>
	<path id="XMLID_199_" class="st1" d="M5041.4-625.1c43.7-19.2,81.4-42.4,112.2-68.8c0.9-38,4.9-71.3,8.9-95.4
		c-43.9,42.8-96.3,77.1-156.4,102.2c-6.8,11.8-34.2,58.5-59.2,94.5C4968.8-598.2,5003.4-608.4,5041.4-625.1z"/>
	<path id="XMLID_198_" class="st1" d="M4610.9-919.3c82.6,12.2,208.8,13,347.3-50.2c-19.2-15.4-37.1-31.1-53.7-46.9
		c-68.8,19.7-136.6,29.5-203.1,29.5c-12.8,0-25.5-0.4-38.2-1.1c-11.3,2-116.4,21.1-179.8,35C4509.2-942.7,4553.7-927.8,4610.9-919.3
		z"/>
	<path id="XMLID_197_" class="st1" d="M4889.2-1031.4c-17.7-17.8-33.8-35.7-48.5-53.5c-31.1,2.3-61.5,3.5-91.1,3.5
		c-51.4,0-100.4-3.5-147-10.5c-54.8,17.3-119.8,27.8-158.2,33C4584.9-998.6,4734.3-989.3,4889.2-1031.4z"/>
	<path id="XMLID_196_" class="st1" d="M4473.5-1141.8c101.7,34.6,220.4,47.7,352.9,39.2c-16.2-20.8-30.5-41.2-43-60.8
		c-1.2,0-2.4,0-3.6,0c-94.6,0-182.6-13.7-261.8-40.7c-12.9,0.4-98.9,3.1-173.3-1C4368.4-1188.4,4410.6-1163.2,4473.5-1141.8z"/>
</g>
<path id="XMLID_141_" class="st1" d="M6335.8,4375.5c-3.6,5.2-7.4,10.3-11.5,15.5l-5.3,6.7l-7.1-4.7c-1-0.7-12.8-8.6-27.5-23
	c-2.3,10.2-6.5,25-13.6,41.6c5.3,32.7,36.6,67,49.6,80c30-24.8,42.4-52.3,46.8-64.4C6349.8,4406.5,6340.7,4388.7,6335.8,4375.5z"/>
<path id="XMLID_140_" class="st1" d="M6437.7,4359.7c-7.9-19.8-13.5-44.2-14-73.9c-3.7,3.6-7.6,7.2-11.8,10.6l-5.8,4.8l-5.9-4.7
	c-0.9-0.7-10.5-8.5-22.9-22.6c-3,19.2-10.3,48-27.9,79.8c1.1,8.2,7.6,37.6,45,75.6C6405.3,4418.8,6427.8,4393.7,6437.7,4359.7z"/>
<path id="XMLID_139_" class="st1" d="M6510.9,5034.2c-3.6-6.6-6.1-12.5-7.9-17.7c-4.5,3.7-7.6,5.6-8,5.9l-6.1,3.7l-5.1-5
	c-3.2-3.1-6.1-6.2-8.8-9.3c-3.7,13.6-9,24.5-14.5,33.1c5.2,10.7,12.6,21.2,22,31.1C6489.7,5070.7,6503,5058.2,6510.9,5034.2z"/>
<path id="XMLID_138_" class="st1" d="M6506.8,4905.5c-8.4,12.5-22.6,29.9-44.2,45.4c1.3,7.3,6.7,27.8,28.6,51.3
	c10-8.3,29.9-29.1,35.3-66.3C6520,4927.8,6513,4917.7,6506.8,4905.5z"/>
<path id="XMLID_137_" class="st1" d="M6464.8,4114.5c-36.4,27.5-77.2,49.5-121.1,64.8c16.7,50.9,49.2,85.2,62.4,97.5
	c58.3-53,63.9-135.8,64.4-150.2C6468.5,4122.8,6466.6,4118.8,6464.8,4114.5z"/>
<path id="XMLID_136_" class="st1" d="M6558.4,4173c-4.4,6.7-9.3,13.4-14.7,20.2l-4.9,6.1l-6.8-3.7c-1.3-0.7-23.7-13.1-45.3-42.5
	c-2.8,19.6-9,47-22.3,75c16.5,42.1,42.7,64.9,54.8,73.7c38.4-51.6,44.5-101,45.5-116.8C6562.6,4181.2,6560.4,4177.2,6558.4,4173z"/>
<path id="XMLID_134_" class="st1" d="M6447.6,5060.7c-7.5,7.5-13.6,10.8-14.2,11.1l-6,3.1l-4.8-4.7c-4.4-4.3-8.4-8.4-12-12.4
	c-2.2,5.9-5,11.5-8.1,16.8c1.5,9.9,11.7,35.1,24,44.5c7.8-3.9,25.4-15,35.1-38.3C6456.3,5074.3,6451.6,5067.6,6447.6,5060.7z"/>
<path id="XMLID_133_" class="st1" d="M6270.6,5119.1c12.3-9.4,22.5-34.6,24-44.5c-3.1-5.3-5.8-10.9-8.1-16.8c-3.6,4-7.6,8.1-12,12.4
	l-4.8,4.7l-6-3.1c-0.6-0.3-6.6-3.6-14.2-11.1c-4,6.9-8.7,13.6-14.1,20.1C6245.2,5104,6262.8,5115.2,6270.6,5119.1z"/>
<path id="XMLID_132_" class="st1" d="M6315.2,4372.3c40.4-54.5,44.9-106.7,45.4-119.2c-12.7-17.7-25.7-40.5-34.7-67.9
	c-13.2,4-26.7,7.4-40.4,10.2c-3.3,14.1-13.3,50.3-35.5,91.1C6267.6,4331.1,6300.8,4360.9,6315.2,4372.3z"/>
<path id="XMLID_130_" class="st1" d="M6000,4429.4c37.5-38.1,44-67.5,45.1-75.7c-17.7-31.8-25-60.6-27.9-79.8
	c-12.4,14.1-22,21.8-22.9,22.6l-5.9,4.7l-5.8-4.8c-4.2-3.4-8.1-7-11.8-10.6c-0.6,29.7-6.1,54.1-14,73.9
	C5966.6,4393.9,5989.1,4418.9,6000,4429.4z"/>
<path id="XMLID_129_" class="st1" d="M6068.5,4185.2c-9,27.4-22,50.2-34.7,67.9c0.5,12.5,5,64.7,45.4,119.2
	c14.4-11.4,47.7-41.3,65.2-85.8c-22.2-40.8-32.1-77-35.5-91.1C6095.2,4192.6,6081.7,4189.2,6068.5,4185.2z"/>
<path id="XMLID_128_" class="st1" d="M6205.9,5002.1c21.9-23.5,27.3-44,28.6-51.3c-21.6-15.4-35.8-32.8-44.2-45.4
	c-6.1,12.2-13.1,22.4-19.7,30.4C6176,4973,6195.9,4993.8,6205.9,5002.1z"/>
<path id="XMLID_127_" class="st1" d="M6074.1,4491.6c13-13,44.3-47.3,49.6-80c-7.2-16.6-11.3-31.4-13.6-41.6
	c-14.7,14.5-26.5,22.3-27.5,23l-7.1,4.7l-5.3-6.7c-4.2-5.2-8-10.4-11.5-15.5c-4.8,13.2-14,31-31.3,51.7
	C6031.7,4439.3,6044.3,4466.9,6074.1,4491.6z"/>
<path id="XMLID_126_" class="st1" d="M6214.9,5076c9.4-10,16.7-20.4,22-31.1c-5.5-8.5-10.8-19.4-14.5-33.1c-2.7,3.1-5.6,6.1-8.8,9.3
	l-5.1,5l-6.1-3.7c-0.5-0.3-3.6-2.2-8-5.9c-1.8,5.1-4.3,11.1-7.9,17.7C6194.2,5058.2,6207.4,5070.7,6214.9,5076z"/>
<path id="XMLID_125_" class="st1" d="M6596.5,4077.1c-3,18.7-9.9,46.1-26.4,76.5c4,9.7,8.5,18.1,13,25.5l0.5,0c0,0.1,0,0.4,0,0.8
	c14.4,23,30,35.3,37.9,40.6c37.3-37,41.1-83.6,41.4-90.6c-0.6-3.9-1.1-7.7-1.7-11.3C6648.8,4115.4,6621.9,4105.5,6596.5,4077.1z"/>
<path id="XMLID_124_" class="st1" d="M5937.1,4358.4c0-0.1-0.1-0.2-0.1-0.3l0.3-0.1c10.1-23.1,17-53.8,14.4-94
	c-3.7-5-7.1-10.1-10.3-15.2c-25,52.2-62.1,72.7-63.8,73.6l-6.8,3.7l-4.9-6.1c-9.8-12.3-17.8-24.5-24.4-36.2
	c-2.8,6-5.8,11.7-8.8,16.9c2.2,12.9,13.4,64.2,60.9,113.2C5903.1,4407.1,5923.1,4390,5937.1,4358.4z"/>
<path id="XMLID_122_" class="st1" d="M6188,4827.1c-11.6-14.2-18.9-27.7-23.3-37.8c-2.1,2.2-4.3,4.3-6.6,6.5l-5.9,5.6l-6.4-5.1
	c-0.3-0.3-1.9-1.6-4.4-3.8c-2.6,16.3-10,39.5-29.6,64.5c0.6,10.9,4.6,49.4,32,80.4C6158.1,4924,6191.3,4886.3,6188,4827.1z"/>
<path id="XMLID_121_" class="st1" d="M6126.4,5020.7c0,0.1,0.1,0.4,0.2,0.8c8.4,14.5,18.2,24.3,24.4,29.7
	c6.8-7.3,12.6-14.9,17.2-22.7c7.2-12.1,9.9-21.9,11-27.1c-9.2-11.2-18.8-27.2-24.2-48.7c-3.4,3.1-5.6,4.8-6.1,5.2l-6.4,4.8l-5.7-5.6
	c-5.1-5-9.6-10.2-13.6-15.5c-1.4,11.7-4.5,24.9-10.9,38.7c2.3,16.1,7.6,29.6,13.9,40.5L6126.4,5020.7z"/>
<path id="XMLID_120_" class="st1" d="M6124.1,4774.2c-9.2-11.1-19.6-26.1-27.4-44.2c-20.8,35.4-47,49.9-48.9,50.9l-3.9,2.1
	c0,3.2-0.1,6.6-0.3,10.3l0,0c8.7,36.4,30.8,57.8,41.4,66.2C6123.3,4820,6124.5,4783.7,6124.1,4774.2z"/>
<path id="XMLID_119_" class="st1" d="M6548,5129.6c0-14.7-12-26.7-26.7-26.7s-26.7,12-26.7,26.7V5234c0,14.7,12,26.7,26.7,26.7
	s26.7-12,26.7-26.7V5129.6z"/>
<path id="XMLID_118_" class="st1" d="M6175.9,5260.7c14.7,0,26.7-12,26.7-26.7v-104.4c0-14.7-12-26.7-26.7-26.7
	c-14.7,0-26.7,12-26.7,26.7V5234C6149.2,5248.7,6161.1,5260.7,6175.9,5260.7z"/>
<path id="XMLID_117_" class="st1" d="M6129.1,4199c7,25.3,26.2,82.3,68.1,132.7c41.9-50.4,61.1-107.4,68.1-132.7
	c-22.2,3.4-44.9,5.2-68.1,5.2v0c0,0,0,0,0,0c0,0,0,0,0,0v0C6174,4204.2,6151.3,4202.4,6129.1,4199z"/>
<path id="XMLID_116_" class="st1" d="M6232.6,5358.8c45.5,37.2,95.6,78.3,116,148.7c20.3-70.4,70.5-111.5,116-148.7
	c33.3-27.2,63.1-51.7,76.2-83.9c-5.9,2.8-12.5,4.4-19.4,4.4c-19.7,0-36.5-12.7-42.7-30.2c-13.3,32-40.5,48.1-66.2,60.1
	c-53.9,25-63.8,69.1-63.8,69.1s0-28.6-63.8-69.1c-24-15.2-52.9-28.1-66.2-60.1c-6.2,17.6-23,30.2-42.7,30.2c-7,0-13.5-1.6-19.4-4.4
	C6169.5,5307.1,6199.4,5331.5,6232.6,5358.8z"/>
<path id="XMLID_115_" class="st1" d="M6139.9,5102.2c8.3-10.9,21.3-17.9,36-17.9c25,0,45.4,20.3,45.4,45.4v0.6h31.6
	c-9.7-6.5-22.1-17.5-31.1-34.7l-3.5,3.4l-5.8-2.7c-1.1-0.5-23.9-11.4-38.7-43.3c-4.6,5.9-9.7,11.7-15.4,17.2l-5.4,5.2l-6.3-4.1
	c-0.8-0.5-8.7-5.8-18.2-16.1c-1,10.3-3.8,21.5-9.9,31.5c6.4,2.2,12.4,5.8,17.3,10.8C6137.3,5099,6138.6,5100.6,6139.9,5102.2z"/>
<path id="XMLID_112_" class="st1" d="M6000.9,4863.7c28.7-33.1,24.3-90.6,23.7-97.1c-9.3-10.3-17.1-20.5-23.7-30.5
	c-4.2,18.2-13.8,43.5-35.5,74l-3.6,5.1l-6.1-1.4c-0.8-0.2-8.4-2.1-18.8-8.4C5957.9,4837.4,5988.3,4856.7,6000.9,4863.7z"/>
<path id="XMLID_109_" class="st1" d="M5776.4,4359.8l-6.8,3.7l-4.9-6.1c-14.8-18.5-25.8-36.6-34-53.3c3.8,25.4,9.8,51.3,18.7,76.7
	l0,0c16.3,44.8,42,60.7,53.5,65.8c31.4-46.5,31.4-77.8,31-84.4c-7.8-15.6-12.7-29.6-15.7-40.3
	C5797.7,4348.1,5777.6,4359.1,5776.4,4359.8z"/>
<path id="XMLID_108_" class="st1" d="M5731.5,4129.9c0.4,7,4.1,53.6,41.4,90.6c8-5.3,23.6-17.7,37.9-40.6c0-0.3,0-0.6,0-0.7l0.4,0
	c4.6-7.4,9.1-15.8,13.1-25.5c-16.5-30.4-23.5-57.9-26.4-76.5c-25.5,28.5-52.3,38.3-64.7,41.5
	C5732.6,4122.2,5732.1,4126,5731.5,4129.9z"/>
<path id="XMLID_107_" class="st1" d="M5724.8,4219.6L5724.8,4219.6c0.1,0.6,2.4,57.1,49.3,119.5c12.4-9,39.8-32.9,56.2-77.3
	c-9.2-20.9-14.1-39.5-16.6-53.8c-19.1,23.2-36.9,32-38,32.5l-5.6,2.7l-4.6-4.2c-19.5-17.5-31.7-37.1-39.4-54.9
	C5725.3,4195.4,5724.8,4207.2,5724.8,4219.6z"/>
<path id="XMLID_106_" class="st1" d="M5986.4,5148.9h-484c-18.2,0-32.9,14.7-32.9,32.9c0,18.2,14.7,32.9,32.9,32.9h484V5148.9z"/>
<path id="XMLID_105_" class="st1" d="M7194.8,5148.9h-484v65.8h484c18.2,0,32.9-14.7,32.9-32.9
	C7227.7,5163.6,7213,5148.9,7194.8,5148.9z"/>
<path id="XMLID_104_" class="st1" d="M7114,6124.1c47.8,12.2,88,16,110.7,17.1c-23.1-26.3-56.9-57.5-106.5-98.4
	c-85.1-18.4-157.9-52.6-216.5-101.9c-8.4,3.8-16.8,7.6-25.5,11.3c-6.4,2.7-10.6,8.5-11.4,15c1.1,4.7,2.1,9.3,3.1,13.8
	c46.2,50.8,104,90.7,171.7,118.5c23.1,9.4,47.3,17.5,71.9,23.9L7114,6124.1z"/>
<path id="XMLID_103_" class="st1" d="M7371,5961.4c32.4-2.4,59.4-6.3,78.5-9.7c-57.5-21.7-111.7-40.7-119.2-43.3
	c-77-0.7-170.3-15.5-269.4-62.5c-18.6,14.1-38.4,27.8-59.5,41.1c68.6,39.5,148.1,64,236.7,72.8h1.3l0.4,0.2
	C7282.4,5964.2,7326.5,5964.7,7371,5961.4z"/>
<path id="XMLID_102_" class="st1" d="M7552.6,5397.2L7552.6,5397.2c-59.6,34-131.1,64.2-213.4,80.2c-6.5,1.3-11.8,5.9-13.9,12.2
	c-4,11.9-10.1,28.4-18.8,48.3c213.7-9.1,354.5-127.2,407.9-180.9C7634.4,5382.4,7553.5,5397.1,7552.6,5397.2z"/>
<path id="XMLID_101_" class="st1" d="M7088.8,6210.1c-25-36-52.4-82.7-59.2-94.5c-60.1-25.1-112.5-59.4-156.3-102.2
	c4,24.2,8.1,57.4,8.9,95.4c30.8,26.4,68.4,49.5,112.2,68.8C7032.3,6194.3,7067,6204.5,7088.8,6210.1z"/>
<path id="XMLID_100_" class="st1" d="M7358.8,6034.1c-51.4-26-111.8-51-122.9-55.6h-1.9l-0.4-0.4c-93.8-9.8-177.9-36.7-250-80.1
	c-20,11.9-41,23.3-63.2,34.1c55.7,44.8,124.3,76.1,204.1,93c29.8,6.3,61.2,10.6,93.3,12.8
	C7277.9,6041.9,7329.1,6037.8,7358.8,6034.1z"/>
<path id="XMLID_99_" class="st1" d="M7573.9,5483.8c-69.1,36.6-162.4,69.9-276,73c-9.1,19.2-20.4,40.7-34.1,63.8
	c90.1-0.7,174-14.2,249.5-40.2c2.9-1,5.7-1.9,8.4-3l1.6-0.6c96.5-34.9,157.9-83.2,189.4-113
	C7656.4,5479.4,7586.7,5483.2,7573.9,5483.8z"/>
<path id="XMLID_98_" class="st1" d="M6269.4,4353.9c-10.9-12.8-22.1-28.7-31-47.4c-9.6,15.3-20.9,30.8-34.2,45.7l-6.9,7.6l-6.9-7.6
	c-13.4-14.9-24.7-30.4-34.2-45.7c-9,18.7-20.1,34.6-31,47.4l0.9-0.1c0.1,0.8,10.7,79.3,71.3,123.7c60.8-44.5,71.2-122.9,71.3-123.7
	L6269.4,4353.9z"/>
<path id="XMLID_97_" class="st1" d="M7552.3,5849.7c-63.5-13.9-168.6-32.9-179.9-35c-12.7,0.7-25.4,1.1-38.2,1.1
	c-66.5,0-134.3-9.9-203.1-29.5c-16.6,15.8-34.4,31.5-53.7,46.9c138.5,63.2,264.7,62.4,347.3,50.2
	C7482,5874.9,7526.5,5859.9,7552.3,5849.7z"/>
<path id="XMLID_96_" class="st1" d="M7433.1,5710.8c-46.6,7-95.7,10.5-147,10.5c-29.6,0-60-1.2-91.1-3.5
	c-14.7,17.7-30.8,35.6-48.5,53.5c154.9,42.1,304.3,32.8,444.8-27.4C7553,5738.6,7487.9,5728.1,7433.1,5710.8z"/>
<path id="XMLID_95_" class="st1" d="M6747.5,4272.8l1.3-0.3c-22.1-12.2-42.4-25.5-60.6-39.9c-0.4,22.3-1.9,45.7-5.3,69.7
	c4.6,2.9,9.3,5.8,14.2,8.5c28.1,15.8,55.1,25.6,72.4,30.9C6759.9,4318.7,6752.4,4292.6,6747.5,4272.8z"/>
<path id="XMLID_94_" class="st1" d="M6557.3,5102.2c1.2-1.6,2.5-3.2,4-4.6c5-5,10.9-8.6,17.3-10.8c-6.1-9.9-8.9-21.1-9.9-31.5
	c-9.5,10.3-17.4,15.6-18.2,16.1l-6.3,4.1l-5.4-5.2c-5.7-5.5-10.8-11.3-15.4-17.2c-14.8,31.9-37.6,42.7-38.7,43.3l-5.8,2.7l-3.5-3.4
	c-9,17.2-21.4,28.2-31.1,34.7h31.6v-0.6c0-25,20.3-45.4,45.4-45.4C6536,5084.3,6549,5091.3,6557.3,5102.2z"/>
<path id="XMLID_93_" class="st1" d="M6031.7,5260.7c14.7,0,26.7-12,26.7-26.7v-104.4c0-14.7-12-26.7-26.7-26.7s-26.7,12-26.7,26.7
	V5234C6005,5248.7,6017,5260.7,6031.7,5260.7z"/>
<path id="XMLID_92_" class="st1" d="M6665.4,5260.7c14.7,0,26.7-12,26.7-26.7v-104.4c0-14.7-12-26.7-26.7-26.7
	c-14.7,0-26.7,12-26.7,26.7V5234C6638.7,5248.7,6650.7,5260.7,6665.4,5260.7z"/>
<path id="XMLID_91_" class="st1" d="M6858.3,5941.9c3.1-2.8,6.6-5.1,10.7-6.8c310.7-131.6,414.3-378.7,438.7-451.4
	c4.2-12.6,15-22,28-24.6c192-37.4,323.7-153.4,379.5-211.7c-23.8,11.1-47.9,21.6-72.2,31.5c-1,0.5-1.7,0.7-1.8,0.8l0-0.1
	c-171.1,69.1-344.7,106.1-391.9,115.4c-4.9,1-9.1,4.2-11.4,8.7c-92.3,183.6-203.6,285.3-281.4,338.6c-67,45.8-120.4,64.4-142.3,70.6
	C6822.8,5834.9,6843.7,5889.3,6858.3,5941.9z"/>
<path id="XMLID_90_" class="st1" d="M7690.9,5597.6c-74.4,4.1-160.4,1.4-173.3,1c-79.2,27-167.2,40.7-261.8,40.7c-1.2,0-2.4,0-3.6,0
	c-12.5,19.6-26.7,40-43,60.8c132.5,8.6,251.2-4.5,352.9-39.2C7625.1,5639.5,7667.3,5614.2,7690.9,5597.6z"/>
<path id="XMLID_89_" class="st1" d="M6267,5051.5c24.5-25.3,32.3-44.3,34.1-49.3c-11.3-11.2-22.8-26.1-32-45.9
	c-0.7,1.7-1.2,2.7-1.4,3.1l-4.2,8.8l-8.6-4.6c-1.3-0.7-2.5-1.4-3.7-2.1c-2.1,7.7-6.2,18.5-14,30.8
	C6242.4,5027,6258.4,5044.4,6267,5051.5z"/>
<path id="XMLID_88_" class="st1" d="M6354,5127.8l-5.4,2.4h0h62.6c-9.8-9.4-17.5-23.6-22.2-36.1
	C6372.8,5114.2,6355.3,5126.9,6354,5127.8z"/>
<path id="XMLID_87_" class="st1" d="M6308.2,5094.2c-4.7,12.5-12.4,26.6-22.2,36.1h62.6h0l-5.4-2.4
	C6341.9,5126.9,6324.3,5114.2,6308.2,5094.2z"/>
<path id="XMLID_86_" class="st1" d="M6351.5,5031.6l-2.9,0.7l-2.9-0.7c-1.1-0.4-13.9-4.8-29.7-16.7c-2.8,6.1-7.5,14.8-15.2,25.5
	c6.8,31.3,35.7,57.9,47.9,68c12.2-10.1,41.1-36.8,47.9-68c-7.7-10.6-12.4-19.4-15.2-25.5C6365.4,5026.8,6352.7,5031.3,6351.5,5031.6
	z"/>
<path id="XMLID_85_" class="st1" d="M6254.7,4941.9c7.5-20,22.4-69.4,10.1-120.4c-15.4,20.7-31.3,35.1-32.5,36.3l-5.7,5.1l-6.1-4.6
	c-5-3.8-9.7-7.7-14-11.6c-1,13.7-3.6,26.1-7.3,37.4C6204.1,4893.3,6221,4921.1,6254.7,4941.9z"/>
<path id="XMLID_84_" class="st1" d="M6352.7,4937.8l-4.2,1.8l-4.2-1.8c-2-1-35.5-18.2-57.6-50c-1.8,15.8-5,29.9-8.2,41.3
	c18.1,57.7,58.5,78.7,70,83.6c11.4-4.9,51.9-25.9,70-83.6c-3.3-11.4-6.5-25.5-8.3-41.3C6388.2,4919.6,6354.7,4936.8,6352.7,4937.8z"
	/>
<path id="XMLID_83_" class="st1" d="M6409.9,4782.8c-12.6,21.5-30.6,43.6-56.1,60.7l-5.2,3.2l-5.2-3.2
	c-25.5-17.1-43.5-39.1-56.1-60.7c-2.5,6.3-5.6,12.5-9,18.4c4.4,12.7,7.1,25.3,8.6,37.7c5.3,43.5,48,71.9,61.7,80
	c13.7-8.1,56.4-36.5,61.7-80c1.5-12.3,4.2-25,8.6-37.7C6415.5,4795.2,6412.4,4789.1,6409.9,4782.8z"/>
<path id="XMLID_82_" class="st1" d="M6498,4884c-3.7-11.2-6.4-23.7-7.3-37.4c-4.3,3.9-8.9,7.8-14,11.6l-6.1,4.6l-5.7-5.1
	c-1.2-1.1-17.1-15.6-32.5-36.3c-12.3,51.1,2.6,100.4,10.1,120.4C6476.2,4921.1,6493,4893.3,6498,4884z"/>
<polygon id="XMLID_80_" class="st1" points="6475.9,5148.9 6348.6,5148.9 6348.6,5148.9 6221.2,5148.9 6221.2,5214.7 6348.6,5214.7 
	6348.6,5214.7 6475.9,5214.7 "/>
<path id="XMLID_79_" class="st1" d="M6464.3,5233.4h-47c0.6,1.4,1.3,2.7,2,4.1c5.9,11.4,13.7,21.6,23.1,30.6
	C6452.2,5259.2,6460,5248.4,6464.3,5233.4z"/>
<path id="XMLID_78_" class="st1" d="M6345.6,5287.7c15.2-15.8,25.2-26.3,32-41c2.1-4.5,3.9-8.9,5.6-13.4h-34.5h0h-40.9
	c2,4.3,4.2,8.6,6.4,12.8C6325.8,5268.3,6338.4,5281.4,6345.6,5287.7z"/>
<path id="XMLID_77_" class="st1" d="M6232.9,5233.4c4.2,15,12,25.8,21.8,34.6c9.3-8.8,17-18.9,22.8-30.1c0.8-1.5,1.5-3,2.2-4.5
	H6232.9z"/>
<path id="XMLID_76_" class="st1" d="M5930,4228c-13.3-27.9-19.5-55.3-22.3-75c-21.6,29.5-43.9,41.8-45.3,42.5l-6.8,3.7l-4.9-6.1
	c-5.4-6.8-10.3-13.5-14.7-20.2c-2.1,4.2-4.2,8.1-6.4,11.9c0.9,15.9,7,65.3,45.5,116.8C5887.3,4293,5913.4,4270.1,5930,4228z"/>
<path id="XMLID_75_" class="st1" d="M6348.6,5336.9c12-21.3,33.7-32.9,55-44.2c8-4.2,15.8-8.4,23.1-13c-9.9-9.9-18.1-21.1-24.5-33.3
	c-0.8-1.6-1.6-3.2-2.3-4.8c-1.7,4.3-3.5,8.7-5.5,13c-8.1,17.7-19.8,29.8-35.9,46.5l-10.6,11.1l-6.4-4.1c-1-0.6-23.6-15.2-43.8-53.1
	c-1.4-2.5-2.7-5.2-4-7.8c-6.2,11.8-14.2,22.5-23.8,32.1c7.5,4.8,15.5,9,23.7,13.4C6314.9,5304,6336.6,5315.6,6348.6,5336.9z"/>
<path id="XMLID_74_" class="st1" d="M5923.9,4126.7c0.6,14.4,6.3,97.4,64.4,150.2c13.2-12.4,45.7-46.8,62.4-97.5
	c-43.9-15.3-84.7-37.4-121.1-64.8C5927.8,4118.8,5925.9,4122.8,5923.9,4126.7z"/>
<path id="XMLID_73_" class="st1" d="M6460,4992.2c-7.8-12.3-11.9-23-14-30.8c-1.2,0.7-2.5,1.4-3.7,2.1l-8.6,4.6l-4.2-8.8
	c-0.2-0.3-0.7-1.4-1.4-3.1c-9.1,19.8-20.7,34.8-32,45.9c1.8,5,9.6,24,34.1,49.3C6438.7,5044.5,6454.7,5027,6460,4992.2z"/>
<path id="XMLID_72_" class="st1" d="M5697.4,4310.8c4.8-2.7,9.5-5.6,14.2-8.5c-3.4-24-5-47.4-5.3-69.7
	c-18.2,14.4-38.5,27.7-60.6,39.9l1.3,0.3c-5,19.8-12.4,45.9-21.9,68.9C5642.3,4336.3,5669.4,4326.5,5697.4,4310.8z"/>
<path id="XMLID_71_" class="st1" d="M6593.4,5260.7c3.1,0,6.1-0.5,8.9-1.5c10.6-3.8,17.7-13.9,17.7-25.2v-104.4
	c0-14.7-12-26.7-26.7-26.7c-7.2,0-13.9,2.8-18.9,7.8c-5,5-7.8,11.8-7.8,18.9V5234C6566.6,5248.7,6578.6,5260.7,6593.4,5260.7z"/>
<path id="XMLID_70_" class="st1" d="M6167.2,5324.9c-99.4,105-128.5,208.6-136.9,261.8c-10.9,78.8,3.9,155.7,10.5,184
	c61.1-38.8,98.2-170.5,104.3-193.6c6.5-70.2,25.4-149.2,72.2-206.7C6199.2,5355.5,6181.7,5340.9,6167.2,5324.9z"/>
<path id="XMLID_69_" class="st1" d="M6134.4,5267.4c-8.1,7.4-18.8,11.9-30.6,11.9c-4.1,0-8.2-0.6-12.1-1.7
	c-146.2,87.9-168.5,308-171.8,370.7c60.3-40.2,102-118.1,106.1-125.9c18.2-57.9,55-134.3,129.3-212.1
	C6145.7,5297.4,6138.4,5283.3,6134.4,5267.4z"/>
<path id="XMLID_68_" class="st1" d="M6348.6,5577.1c0-0.4-18.6-96.9-56.8-137c-21.2,40.3-26.9,93-26.9,137.5
	c5.1,182.9,61.2,288.8,83.8,324.2c22.5-35.4,78.7-141.3,83.8-324.2c-0.1-44.5-5.7-97.2-26.9-137.5
	C6371.5,5475.2,6348.6,5577.1,6348.6,5577.1z"/>
<path id="XMLID_67_" class="st1" d="M6278.7,5425.1c-14.8-15.9-31.1-29.8-47.1-43c-43.2,53.1-61.1,127.6-67.5,194.6l0,0
	c-0.3,2.8-0.5,5.5-0.8,8.2c-5.5,66.8,0,124.7,2.2,144c9,62.5,27.2,101.8,38,120.7c37.3-89.2,42-214.2,42.4-257.9
	C6244.9,5540.5,6250.2,5474.2,6278.7,5425.1z"/>
<path id="XMLID_66_" class="st1" d="M6605.5,5277.7c-3.9,1.1-8,1.7-12.1,1.7c-11.8,0-22.5-4.6-30.6-11.9c-4,15.9-11.3,30-20.9,42.9
	c74.2,77.8,111,154.2,129.3,212.1c4,7.7,45.9,85.7,106.1,125.9C6773.9,5585.7,6751.6,5365.5,6605.5,5277.7z"/>
<path id="XMLID_65_" class="st1" d="M6530,5324.9c-14.5,16-32,30.6-50.1,45.4c46.9,57.5,65.7,136.6,72.2,206.7
	c6.1,23.2,43.2,154.8,104.3,193.6c6.6-28.2,21.4-105.1,10.5-183.9C6658.5,5533.6,6629.4,5429.9,6530,5324.9z"/>
<path id="XMLID_64_" class="st1" d="M6532.9,5576.7L6532.9,5576.7c-6.4-67-24.2-141.5-67.4-194.6c-16,13.2-32.2,27.2-47.1,43
	c28.5,49,33.8,115.4,32.6,166.7c0.4,43.7,5.1,168.7,42.4,257.9c10.8-18.9,29-58.1,38-120.6c2.3-19.7,8-79.6,1.9-148.2
	C6533.2,5579.4,6533.1,5578.1,6532.9,5576.7z"/>
<path id="XMLID_63_" class="st1" d="M5901.2,4946.8c13.9-32.8,25.4-67.5,34.3-103.1c-9.6-17.1-19.3-35.5-29.1-55.6
	c-19.9,46.7-47.4,90.1-82,129.3c-1.2,14.8-4.9,85.3,25.4,125.7C5860.1,5028.1,5880.8,4995.1,5901.2,4946.8z"/>
<path id="XMLID_62_" class="st1" d="M5901.8,5929.3c-37.3,17.1-67.2,23.6-68.7,24l-19.4,4.2l9.1-17.6c10.3-19.8,18.8-46,24.9-68.3
	c-6.8,3.4-13.8,6.7-20.9,9.8c-67.7,94.4-172,153.2-268.1,189.3l0.9,1c-0.7,0.6-65.7,62.3-71.2,141.5c23.1-3.3,82.2-14.2,152-46.5
	C5717.9,6130.8,5823.7,6061,5901.8,5929.3z"/>
<path id="XMLID_61_" class="st1" d="M6108.8,5028.1c-4-7.2-7.6-15.4-10.4-24.4c-0.1,0.2-0.3,0.4-0.4,0.6l-4.1,5.6l-6.6-2.4
	c-1.2-0.4-14.1-5.2-29.5-14.7c21.6,30.2,37.8,55.7,45.3,83.4C6113,5059.4,6110.3,5036.4,6108.8,5028.1z"/>
<path id="XMLID_60_" class="st1" d="M5792.2,5895.6c-50.3,18.8-88.2,25.7-90.1,26l-23.9,4.2l14.9-19.1
	c19.6-25.2,45.3-66.9,60.7-92.6c-15.4,5.5-31.1,10.4-47,14.6l0,0l-0.5,0.1c-101.1,77.9-213.8,117.6-315.6,136.8
	c-3.9,1.9-95.5,46.5-137.6,150.5c32.2-2,116.1-9.5,211.9-35.1C5567.8,6053.7,5704,5999.6,5792.2,5895.6z"/>
<path id="XMLID_59_" class="st1" d="M5684.9,4877.7c-3.5,16.2-19.7,93.9-17,139.6c24.6-12.7,84.9-47.6,140.5-109.9
	c38.1-42.7,67.4-90.5,87.1-142.2c-4.6-10.2-8.8-20.6-12.4-31.1c0,0,0,0,0,0h0c-7.5-21.5-13.1-43.4-17-65c-1.9,1.2-3.9,2.3-5.8,3.4
	C5810.2,4766.1,5746.4,4831.9,5684.9,4877.7z"/>
<path id="XMLID_58_" class="st1" d="M6087.1,4987.3c25.7-39.8,17.3-77.3,15.8-83c-3.9-10.6-6.3-20.5-7.7-28.7
	c-0.9,0.9-1.8,1.9-2.8,2.8l-5.2,4.9l-6.1-3.7c-0.4-0.2-2.8-1.7-6.4-4.5c0.4,20.7-3.2,49.3-22.6,69.8l-3.3,3.5l-4.8-0.7
	c-0.6-0.1-5.1-0.8-11.8-2.8C6047.8,4967.5,6074.7,4981.7,6087.1,4987.3z"/>
<path id="XMLID_57_" class="st1" d="M6041.9,4928.3c19.3-25,13.9-63.8,12.2-73.3c-5.6-6.7-11.2-14.8-16.3-24.4
	c-4.9,18.3-13.5,37.1-28.5,51.3l-4.6,4.4l-5.7-2.7c-1-0.5-13.1-6.2-28.6-17.5c5.8,9.5,11.6,18.6,17.2,27.3
	C6006,4917.1,6031.4,4925.7,6041.9,4928.3z"/>
<path id="XMLID_56_" class="st1" d="M6005.8,4953c-10.5-14.7-21.6-30.5-33-48c-3.9-5.1-7.6-10.7-10.9-17c-4.3-6.9-8.7-14-13.1-21.4
	c-8.1,29.2-17.9,57.6-29.3,84.8c5,27.9,21.4,93.3,47.5,119.8C5978.2,5054,6002.8,5010,6005.8,4953z"/>
<path id="XMLID_55_" class="st1" d="M6777.7,4951.4c-11.4-27.2-21.2-55.7-29.3-84.8c-4.4,7.4-8.7,14.5-13.1,21.4
	c-3.3,6.3-7,12-10.9,17c-11.4,17.5-22.5,33.4-33,48c3,57.2,27.6,101,38.8,118.2C6756.2,5044.8,6772.7,4979.4,6777.7,4951.4z"/>
<path id="XMLID_54_" class="st1" d="M7567.2,5678.9c-29.2,9.9-59.8,18-91.6,24.5c73,18.2,149.7,25.8,150.6,25.9l32.9,3.2l-29.8,14.4
	c-26.2,12.7-52.7,23.6-79.5,32.8c232.3-16.4,390.5-74.3,485.4-122.7c65.9-33.6,110.3-66.9,136.3-89.3
	c-157.6,47.5-327.8,57-334.4,57.3C7759.6,5649.4,7669.9,5669,7567.2,5678.9z"/>
<path id="XMLID_53_" class="st1" d="M7842.8,5750.3l-0.1-0.2c-99.3,27.3-223.6,48.5-375.4,52.3c-10,2.1-20.1,3.8-30.2,5.4
	c48.8,9.2,113.7,21.9,146.7,30.1l23.7,5.9l-21.6,11.4c-1.3,0.7-18.3,9.5-48,19.8c208.3,17.1,357.7-23.7,448.4-62.7
	c72.6-31.2,119.1-65.6,141-84C7988.3,5714.9,7844.3,5749.9,7842.8,5750.3z"/>
<path id="XMLID_52_" class="st1" d="M7858.1,5875.2l-8.7,0c-60.8,13.4-132.6,22.5-215.4,22.5c-44.5,0-92.1-2.6-142.9-8.6
	c-18.6,4.8-39.7,9.2-62.9,12.7c-14.4,2.1-30,3.9-46.8,5.2c28.9,10.4,67.5,24.5,104.5,38.8l26.9,10.4l-27.9,7.3
	c-1.4,0.4-28.4,7.4-72.2,12.7c155.4,51.8,317.5,29.7,429.8,0.3c99.3-26,176.6-61.7,209.2-77.9
	C7990.9,5874.7,7902.6,5875,7858.1,5875.2z"/>
<path id="XMLID_51_" class="st1" d="M6609.8,5007.6l-6.6,2.4l-4.1-5.6c-0.2-0.2-0.3-0.4-0.4-0.6c-2.8,9.1-6.4,17.2-10.4,24.4
	c-1.4,8.3-4.1,31.3,5.7,48.1c7.6-27.7,23.7-53.2,45.3-83.4C6623.9,5002.3,6611,5007.1,6609.8,5007.6z"/>
<path id="XMLID_50_" class="st1" d="M6546.2,5051.1c6.2-5.4,16.1-15.4,24.5-29.9c0.1-0.3,0.1-0.5,0.1-0.6l0.2,0
	c6.3-10.9,11.6-24.5,13.9-40.5c-6.3-13.8-9.5-27.1-10.9-38.7c-4,5.3-8.5,10.5-13.6,15.5l-5.7,5.6l-6.4-4.8c-0.5-0.3-2.7-2.1-6.1-5.2
	c-5.4,21.5-15,37.5-24.2,48.7c1.1,5.2,3.8,15,11,27.1C6533.6,5036.2,6539.4,5043.8,6546.2,5051.1z"/>
<path id="XMLID_49_" class="st1" d="M7742.5,5327.8l30.6-11.2l-20.1,25.7c-1.3,1.6-24,30.4-67.5,66.6
	c250.6-88.8,415.5-219.9,511.5-317.3c68.6-69.6,112.1-131.6,135.3-168.9c-146.6,101.1-418.1,231.8-573.6,303.7
	c-9.3,11.6-64.9,78.7-160,142.2C7637.4,5359.9,7692.6,5346,7742.5,5327.8z"/>
<path id="XMLID_48_" class="st1" d="M7676.9,6023.8l0-0.2c-20.1,1.5-40.7,2.4-61.7,2.4c-79.3,0-163.5-12.2-245-45.8
	c-19.2,1.4-38.4,2-57.5,2c-7.2,0-14.4-0.1-21.5-0.3c30.8,13.6,70.2,31.8,101.5,49.1l22.3,12.3l-25,5c-2.5,0.5-51,9.9-121.5,9.9
	c-4.6,0-9.2-0.1-14-0.1c108.2,58.3,223,77.8,324.5,79.5l0-0.2c0.3,0,1,0.1,2,0.2c51.5,0.7,99.4-3.1,141.3-8.9
	c107.6-14.8,193.2-43.9,230.3-58C7807.8,6009,7678.2,6023.6,7676.9,6023.8z"/>
<path id="XMLID_47_" class="st1" d="M7993.3,5285.6l-2.8-4.2c-94,60.1-210.2,118.1-351.2,162.6c-2.3,1.6-4.6,3.2-6.9,4.7
	c-6.6,4.5-13.6,9-21,13.6c38.2-3.8,94.9-11.8,130.2-28.6l33.9-16.1l-22.5,30.1c-2.3,3.1-48,63-150.8,115.3
	c252.5-52.2,434-162.5,545.1-250c86.3-67.9,143.3-131.8,172.8-168.4c-63.8,30.7-155.3,68.5-225.5,97.4
	C8046.2,5262,8000.4,5280.9,7993.3,5285.6z"/>
<path id="XMLID_46_" class="st1" d="M7606.4,5581.2c36.2-0.1,77.7-1.2,113-4.3l25.9-2.3l-18.5,18.2c-1.5,1.5-30.7,29.6-93.1,59.2
	c218.9-31.9,371.1-108.3,463.1-169.7c63.3-42.3,106.8-83,132.2-110.1c-96.9,40.5-251.5,76.8-260.2,78.9
	C7870.5,5503.4,7749.7,5551.5,7606.4,5581.2z"/>
<path id="XMLID_45_" class="st1" d="M5570,5848.2c-2.2,0-3.5,0-3.9,0l-18.3-0.5l11.2-14.5c20.2-26.1,50.7-56.3,97-95.7
	c-19.2,3-38.8,5.3-58.8,6.7c-120.5,74.3-251.3,98.2-365.3,99.9c-18.4,2.6-137.2,21.7-221.5,99.1c34.2,7.1,118.5,21.9,223.5,19.8
	c116.2-2.4,280.5-26.5,426-123.8C5614.6,5847.4,5581.1,5848.2,5570,5848.2z"/>
<path id="XMLID_44_" class="st1" d="M6709.8,4893.3c5.6-8.6,11.3-17.6,17.1-27.1c-15.5,11.3-27.6,17-28.6,17.5l-5.7,2.7l-4.6-4.4
	c-15-14.3-23.6-33-28.6-51.3c-5,9.6-10.7,17.7-16.3,24.4c-1.7,9.5-7.1,48.3,12.1,73.3C6665.8,4925.6,6691.3,4916.9,6709.8,4893.3z"
	/>
<path id="XMLID_43_" class="st1" d="M6664.9,4945c-6.7,2-11.2,2.7-11.8,2.8l-4.8,0.7l-3.3-3.5c-19.4-20.6-23-49.2-22.6-69.8
	c-3.6,2.8-6,4.3-6.4,4.5l-6.1,3.7l-5.2-4.9c-1-0.9-1.9-1.9-2.8-2.8c-1.4,8.2-3.8,18.1-7.7,28.7c-1.5,5.7-9.8,43.2,15.9,83
	C6622.4,4981.7,6649.4,4967.5,6664.9,4945z"/>
<path id="XMLID_42_" class="st1" d="M6847.3,5043.2c30.3-40.4,26.5-110.9,25.4-125.7c-34.6-39.2-62.1-82.6-82-129.3
	c-9.8,20-19.5,38.5-29.1,55.6c8.9,35.6,20.4,70.2,34.3,103.1C6816.3,4995.1,6837,5028.1,6847.3,5043.2z"/>
<path id="XMLID_41_" class="st1" d="M7214.1,6056.3c-20-1.4-39.6-3.7-58.8-6.7c46.3,39.4,76.8,69.6,97,95.7l11.2,14.5l-18.3,0.5
	c-0.3,0-1.6,0-3.8,0c-11,0-44.5-0.8-90-9.1c145.7,97.4,310.2,121.5,426.5,123.8c104.8,2.1,188.9-12.6,223-19.8
	c-84.3-77.5-203-96.6-221.4-99.1C7465.4,6154.5,7334.7,6130.6,7214.1,6056.3z"/>
<path id="XMLID_40_" class="st1" d="M7420.6,6277.8c-101.8-19.2-214.5-58.9-315.6-136.8l-0.6-0.2c-15.9-4.2-31.5-9.1-46.9-14.6
	c15.4,25.7,41.1,67.4,60.7,92.6l14.9,19.1l-23.9-4.2c-1.9-0.3-39.8-7.2-90.1-26c88.1,104,224.3,158.1,327.1,185.5
	c95.7,25.5,179.7,33,211.9,35.1C7516.1,6324,7424.4,6279.6,7420.6,6277.8z"/>
<path id="XMLID_39_" class="st1" d="M7071.9,6570.9c2.8-45.7-13.4-123.4-17-139.6c-61.4-45.9-125.2-111.6-175.4-205.3
	c-2-1.1-3.9-2.3-5.8-3.4c-4,21.6-9.5,43.5-17,65l0,0c0,0,0,0,0,0c-3.6,10.4-7.8,20.8-12.4,31.1c19.7,51.7,49,99.5,87.1,142.2
	C6987.2,6523.4,7047.3,6558.2,7071.9,6570.9z"/>
<path id="XMLID_38_" class="st1" d="M7251.6,6383.9l0.9-1c-96.1-36.1-200.4-94.9-268.1-189.3c-7.1-3.2-14.1-6.5-20.9-9.8
	c6.1,22.3,14.6,48.5,24.9,68.3l9.1,17.6l-19.4-4.2c-1.5-0.3-31.4-6.9-68.7-24c78.2,132,184.3,201.9,261.9,237.7
	c69.7,32.2,128.3,43,151.3,46.2C7317.4,6446,7252.3,6384.5,7251.6,6383.9z"/>
<path id="XMLID_37_" class="st1" d="M6094.8,5259.2c2.9,1,5.9,1.6,9,1.6c14.7,0,26.7-12,26.7-26.7v-104.4c0-7.2-2.8-13.9-7.8-18.9
	c-5-5-11.8-7.8-18.9-7.8c-14.7,0-26.7,12-26.7,26.7V5234C6077.1,5245.3,6084.2,5255.4,6094.8,5259.2z"/>
<path id="XMLID_35_" class="st1" d="M5230.4,5825.5c1-0.1,1.7-0.2,2-0.2l0,0.2c101.4-1.7,216.2-21.2,324.5-79.5
	c-4.7,0.1-9.4,0.1-14,0.1c-70.6,0-119.1-9.5-121.5-9.9l-25-5l22.3-12.3c31.3-17.3,70.7-35.5,101.5-49.1c-7.2,0.2-14.3,0.3-21.5,0.3
	c-19,0-38.2-0.7-57.5-2c-81.4,33.6-165.7,45.8-245,45.8c-21,0-41.6-0.9-61.7-2.4l0,0.2c-1.4-0.2-131.2-14.6-275.7,47
	c37.2,14.1,123,43.4,230.8,58.1C5131.3,5822.3,5179.1,5826.2,5230.4,5825.5z"/>
<path id="XMLID_26_" class="st1" d="M6653.5,4793.3L6653.5,4793.3c-0.2-3.7-0.3-7.1-0.3-10.3l-3.9-2.1c-1.9-1-28.1-15.5-48.9-50.9
	c-7.8,18.1-18.2,33.1-27.4,44.2c-0.5,9.7,0.8,45.7,39,85.3C6622.7,4851,6644.9,4829.4,6653.5,4793.3z"/>
<path id="XMLID_25_" class="st1" d="M6501,4413.9c47.8-49.2,58.8-100.4,60.9-113.2c-3.1-5.2-6-10.9-8.8-16.9
	c-6.6,11.8-14.6,24-24.4,36.2l-4.9,6.1l-6.8-3.7c-1.7-0.9-38.8-21.4-63.8-73.6c-3.2,5.1-6.6,10.2-10.3,15.2
	c-2.6,40.2,4.3,70.9,14.4,94l0.3,0.1c0,0.1-0.1,0.2-0.1,0.3C6471.3,4390,6491.3,4407,6501,4413.9z"/>
<path id="XMLID_24_" class="st1" d="M6555.7,4792.5c-2.5,2.3-4.1,3.6-4.4,3.8l-6.4,5.1l-5.9-5.6c-2.3-2.2-4.5-4.4-6.6-6.5
	c-4.5,10.1-11.8,23.6-23.3,37.8c-3.2,58.6,30,96.8,44.2,110.3c27.4-31,31.4-69.4,32-80.4C6565.8,4832,6558.4,4808.8,6555.7,4792.5z"
	/>
<path id="XMLID_23_" class="st1" d="M6760.2,4805.3c-10.4,6.3-18,8.3-18.8,8.4l-6.1,1.4l-3.6-5.1c-21.7-30.5-31.3-55.8-35.5-74
	c-6.6,10-14.5,20.2-23.7,30.5c-0.6,6.6-4.9,64.1,23.7,97.1C6708.8,4856.6,6739.3,4837.3,6760.2,4805.3z"/>
<path id="XMLID_22_" class="st1" d="M6645.1,4380.9L6645.1,4380.9c8.9-25.4,14.9-51.3,18.7-76.7c-8.3,16.7-19.3,34.8-34,53.3
	l-4.9,6.1l-6.8-3.7c-1.3-0.7-21.3-11.8-41.8-37.9c-3,10.8-7.9,24.7-15.7,40.3c-0.4,6.6-0.4,37.9,31,84.4
	C6603,4441.6,6628.8,4425.7,6645.1,4380.9z"/>
<path id="XMLID_20_" class="st1" d="M6669.6,4219.6c-0.1-12.3-0.5-24.2-1.2-35.5c-7.7,17.8-20,37.4-39.4,54.9l-4.6,4.2l-5.6-2.7
	c-1.2-0.6-19-9.3-38-32.5c-2.6,14.3-7.4,33-16.6,53.8c16.4,44.4,43.8,68.2,56.2,77.3C6667.2,4276.7,6669.6,4220.2,6669.6,4219.6
	L6669.6,4219.6z"/>
<g id="XMLID_2_">
	<path id="XMLID_135_" class="st1" d="M921.2,797.4c-22.8,32.2-49.8,61.2-80.2,86.2c16.6,41.2,42.3,63.7,54.3,72.4
		c5.7-7.7,10.7-15.3,15.1-22.8c-0.1-0.1-0.1-0.3-0.2-0.4l0.5-0.2c26.8-46,29.8-85.9,30.1-96.2C933.7,825.4,927,812.5,921.2,797.4z"
		/>
	<path id="XMLID_131_" class="st1" d="M564,815.2l-5.8,4.7l-5.8-4.7c-1.7-1.4-18.2-15.1-36.7-41.2c-4.8,23.9-16.6,59.2-46.4,88.6
		c-29.2,28.9-69.1,45.6-118.8,49.9c61.5,34.5,132.4,54.2,207.8,54.2c75.4,0,146.2-19.7,207.8-54.2c-49.7-4.4-89.6-21.1-118.8-49.9
		c-29.7-29.4-41.6-64.7-46.4-88.6C582.2,800,565.8,813.8,564,815.2z"/>
	<path id="XMLID_123_" class="st1" d="M1013,849.8c-12-49.5-32.8-106.6-44.5-137.1c-9.6,22.9-21.2,44.8-34.3,65.5
		c22.6,69,63.5,92.9,84.4,100.8c-2-10-3.6-16.9-4.4-19.9C1013.3,856,1012.9,852.8,1013,849.8z"/>
	<path id="XMLID_114_" class="st1" d="M311.7,804.9c-52.7-9.4-96.9-31.8-129.9-64.5c33.3,62.3,81.6,115.5,140.1,154.6
		c58.1,0.3,103.3-15.1,134.3-45.7c28.5-28.2,38.5-63.1,42.1-84.1c-30.1,27.8-80.6,44.2-136.2,44.2
		C345.6,809.4,328.7,808,311.7,804.9z"/>
	<path id="XMLID_113_" class="st1" d="M566.4,627.7l-8.2,13.2l-8.2-13.3c-0.2-0.4-14.1-24.6-68.7-65.1
		c-7.3,78.2,13.1,137.4,35.5,177.3l0.9,0.5c-0.1,0.2-0.2,0.4-0.3,0.6c15.7,27.7,32.3,45.8,40.8,54.2c8.5-8.4,25.1-26.5,40.8-54.2
		c-0.1-0.2-0.2-0.4-0.3-0.6l0.9-0.5c22.4-39.9,42.9-99.1,35.5-177.3C580.5,603,566.6,627.3,566.4,627.7z"/>
	<path id="XMLID_111_" class="st1" d="M804.6,804.9c-17,3-33.9,4.5-50.4,4.5c-55.5,0-106-16.4-136.1-44.2
		c3.6,21.1,13.7,56.1,42.2,84.2c31,30.5,76.1,45.9,134.1,45.6c58.5-39.1,106.8-92.2,140.1-154.6
		C901.5,773.1,857.3,795.6,804.6,804.9z"/>
	<path id="XMLID_110_" class="st1" d="M102.3,859.1c-0.8,3.1-2.4,10-4.4,20c20.9-7.8,61.6-31.4,84.4-100.9
		c-13.2-20.7-24.7-42.6-34.3-65.5c-11.7,30.5-32.5,87.6-44.5,137.1C103.4,852.8,103.1,856,102.3,859.1z"/>
	<path id="XMLID_81_" class="st1" d="M205.6,932.6l0.5,0.2c0,0.1-0.1,0.3-0.2,0.4c4.4,7.5,9.4,15.1,15.1,22.8
		c12-8.7,37.7-31.2,54.3-72.4c-30.4-25.1-57.4-54.1-80.2-86.2c-5.9,15.1-12.6,28-19.7,39C175.8,846.7,178.9,886.7,205.6,932.6z"/>
	<path id="XMLID_36_" class="st1" d="M558.2,357.1c81.8-72.7,89.6-201.5,90.2-233.5c-29.4-6.4-59.6-9.7-90.2-9.7
		c-30.6,0-60.8,3.3-90.2,9.7C468.6,155.6,476.3,284.4,558.2,357.1z"/>
	<path id="XMLID_34_" class="st1" d="M368.2,344.8c-34.5-53.5-43.5-127-45.8-159.6c-40,26.5-75.6,59.8-105.1,98.9
		c10.2,5.3,20.8,10.1,31.6,14C286.1,311.8,327.6,327.5,368.2,344.8z"/>
	<path id="XMLID_33_" class="st1" d="M867.4,298.2c10.8-4,21.4-8.7,31.6-14c-29.5-39.1-65.1-72.4-105.1-98.9
		c-2.3,32.6-11.3,106.1-45.8,159.6C788.7,327.5,830.2,311.8,867.4,298.2z"/>
	<path id="XMLID_32_" class="st1" d="M131.8,540.3c0,30.8,3.3,60.9,9.6,89.9c4.3,17.9,10.6,34.7,18.8,50.1l0.6,0.1l-0.2,0.5
		c29.8,55.2,83.9,93.1,154.4,105.6c74.8,13.3,150.8-6.7,180.4-45.9c-18.2-35-33.9-82.4-34.3-142.2c-25.4,45.8-74.3,76.3-129.7,76.3
		c-81.8,0-148.3-66.5-148.3-148.3c0-41.6,17.1-80.4,47.2-108.5c-23.6-16.1-44.2-33.1-62.1-50.4C144,422.1,131.8,480.1,131.8,540.3z"
		/>
	<path id="XMLID_31_" class="st1" d="M347.4,575.3c33.7,0,61.4-25,65.2-57.9c-29.6-17.6-65.4-36.9-108.4-57.5
		c-14.3,12.4-22.7,30.6-22.7,49.6C281.6,545.8,311.1,575.3,347.4,575.3z"/>
	<path id="XMLID_30_" class="st1" d="M201.7,526.5c0,71.5,58.2,129.7,129.7,129.7c64,0,118.1-46.5,128-109.1
		c-9-6.1-18.9-12.6-29.7-19.3c-8.3,38.1-41.9,66.1-82.4,66.1c-46.6,0-84.4-37.9-84.4-84.4c0-21.9,8.6-42.8,23.5-58.4
		c-14.1-7.2-27.4-14.7-40-22.6C218,453.2,201.7,488.6,201.7,526.5z"/>
	<path id="XMLID_29_" class="st1" d="M306.9,440.5c169.8,80.8,231.5,142,251.3,166.7c19.8-24.7,81.5-85.9,251.3-166.7
		c149.4-71.1,209.8-186.5,232.4-248.8c-33.9,38.4-94.6,97.2-168,124c-66.4,24.2-268.3,98-307.6,165.4l-8,14.4l-8-14.4
		c-39.3-67.4-241.3-141.2-307.6-165.4c-73.3-26.8-134-85.4-167.9-123.9C97.4,254.1,157.9,369.6,306.9,440.5z"/>
	<path id="XMLID_28_" class="st1" d="M769,575.3c36.3,0,65.8-29.5,65.8-65.8c0-19.1-8.4-37.2-22.7-49.6
		c-43,20.6-78.7,39.9-108.4,57.5C707.6,550.2,735.2,575.3,769,575.3z"/>
	<path id="XMLID_27_" class="st1" d="M656.9,547.1c9.9,62.6,64,109.1,128,109.1c71.5,0,129.7-58.2,129.7-129.7
		c0-37.9-16.2-73.2-44.7-98c-12.5,7.8-25.8,15.4-40,22.6c14.9,15.6,23.5,36.5,23.5,58.4c0,46.5-37.9,84.4-84.4,84.4
		c-40.4,0-74.1-28-82.4-66.1C675.8,534.5,666,540.9,656.9,547.1z"/>
	<path id="XMLID_21_" class="st1" d="M621,740.7c29.6,39.2,105.6,59.2,180.4,45.9C871.9,774.1,926,736.2,955.8,681l-0.2-0.6l0.6-0.1
		c8.2-15.4,14.5-32.2,18.8-50.1c6.3-29,9.6-59.1,9.6-89.9c0-60.2-12.2-118.2-36.4-172.6c-17.9,17.2-38.5,34.3-62.1,50.4
		c30.1,28,47.2,66.9,47.2,108.5c0,81.8-66.5,148.3-148.3,148.3c-55.4,0-104.2-30.5-129.7-76.3C654.8,658.4,639.2,705.7,621,740.7z"
		/>
	<path id="XMLID_19_" class="st1" d="M406,361.5c65.9,30.3,124.6,64.1,152.1,98.6c27.5-34.4,86.2-68.3,152.1-98.6
		c55.8-51.5,64.4-162,65.6-187.7c-33.9-20.2-70.6-35.5-108.9-45.7c-1,41.2-11.7,173.8-102.9,248.5l-5.9,4.9l-5.9-4.9
		C461,301.9,450.4,169.4,449.3,128.1c-38.3,10.2-75,25.6-108.9,45.7C341.7,199.5,350.2,310,406,361.5z"/>
</g>
<path id="XMLID_18_" class="st1" d="M5177.7,5339.9c-62.5-29.6-91.6-57.7-93.1-59.2l-18.5-18.2l25.9,2.3c35.3,3.1,76.8,4.1,113,4.3
	c-143.3-29.7-264-77.8-362.3-130c-8.8-2.1-163.4-38.4-260.2-78.9c25.5,27,68.9,67.7,132.2,110.1
	C4806.6,5231.7,4958.9,5308,5177.7,5339.9z"/>
<path id="XMLID_17_" class="st1" d="M5440.3,5649.3c44.5,3.2,88.6,2.8,131.2-1.4l0.4-0.2h1.4c88.5-8.9,168.1-33.4,236.7-72.8
	c-21.1-13.2-40.9-27-59.5-41.1c-99.1,46.9-192.4,61.8-269.4,62.5c-7.4,2.6-61.6,21.6-119.2,43.3
	C5380.9,5643,5407.9,5646.9,5440.3,5649.3z"/>
<path id="XMLID_16_" class="st1" d="M5261.6,5467.5c-26.8-9.2-53.3-20.1-79.5-32.8l-29.8-14.4l32.9-3.2c0.9-0.1,77.6-7.8,150.6-25.9
	c-31.8-6.4-62.4-14.6-91.6-24.5c-102.7-9.9-192.5-29.5-269.9-53.8c-6.6-0.3-176.8-9.8-334.4-57.3c25.9,22.4,70.3,55.7,136.3,89.3
	C4871.1,5393.3,5029.3,5451.1,5261.6,5467.5z"/>
<path id="XMLID_15_" class="st1" d="M5593.7,5725.7c32.1-2.2,63.5-6.5,93.3-12.8c79.8-16.9,148.4-48.2,204.1-93
	c-22.2-10.8-43.2-22.2-63.2-34.1c-72.1,43.4-156.2,70.3-250,80.1l-0.4,0.4l-1.9,0c-11,4.5-71.5,29.5-122.9,55.6
	C5482.4,5725.6,5533.6,5729.8,5593.7,5725.7z"/>
<path id="XMLID_14_" class="st1" d="M5209.1,5250.8c-102.9-52.3-148.6-112.3-150.9-115.3l-22.5-30.1l33.9,16.1
	c35.2,16.7,91.9,24.8,130.2,28.6c-7.4-4.6-14.4-9.1-21-13.6c-2.3-1.6-4.6-3.2-6.9-4.7c-141-44.5-257.2-102.5-351.2-162.6l-2.8,4.2
	c-7.1-4.7-52.9-23.6-101.3-43.5c-70.1-28.9-161.6-66.6-225.4-97.4c29.6,36.7,86.9,100.8,173.4,168.8
	C4775.7,5088.7,4956.9,5198.7,5209.1,5250.8z"/>
<path id="XMLID_13_" class="st1" d="M5273.4,5562.8c-29.7-10.3-46.7-19.1-48-19.8l-21.6-11.4l23.7-5.9c33-8.3,97.9-20.9,146.7-30.1
	c-10.1-1.6-20.2-3.4-30.2-5.4c-151.7-3.8-276.1-25-375.4-52.3l-0.1,0.2c-1.5-0.4-145.5-35.4-284.6-22c22.1,18.5,69,53.2,142,84.4
	C4916.6,5539.3,5065.7,5579.9,5273.4,5562.8z"/>
<path id="XMLID_12_" class="st1" d="M5398.6,5663.9c-43.8-5.4-70.8-12.3-72.2-12.7l-27.9-7.3l26.9-10.4
	c37-14.3,75.6-28.4,104.5-38.8c-16.8-1.2-32.4-3-46.8-5.2c-23.2-3.5-44.2-7.9-62.9-12.7c-50.8,6-98.4,8.6-142.9,8.6
	c-82.8,0-154.6-9.1-215.4-22.5l-8.7,0c-44.5-0.2-132.8-0.4-193.6,23.4c32.6,16.3,110.3,52.1,209.7,78
	C5081.5,5693.7,5243.4,5715.7,5398.6,5663.9z"/>
<path id="XMLID_11_" class="st1" d="M5475.7,5146.9c13.1,2.5,23.8,12,28,24.6c24.4,72.6,128,319.8,438.7,451.4c4,1.7,7.6,4,10.7,6.8
	c14.6-52.6,35.4-107,44.1-128.9c-21.9-6.3-75.3-24.8-142.3-70.6c-77.8-53.2-189.1-154.9-281.4-338.5c-2.3-4.5-6.5-7.8-11.5-8.8
	c-47.3-9.3-220.9-46.3-391.9-115.4l0,0.1c-0.2-0.1-0.8-0.3-1.8-0.8c-24.2-9.8-48.4-20.3-72.1-31.4
	C5152.2,4993.6,5284,5109.6,5475.7,5146.9z"/>
<path id="XMLID_10_" class="st1" d="M5125.8,5096.7c-43.5-36.2-66.2-65-67.5-66.6l-20.1-25.7l30.6,11.2
	c49.9,18.2,105.1,32.1,143.7,40.8c-95.1-63.5-150.7-130.6-160-142.2c-155.5-71.9-427-202.7-573.6-303.7
	c23.4,37.5,67,99.8,135.9,169.5C4710.9,4877.3,4875.6,5008.1,5125.8,5096.7z"/>
<path id="XMLID_9_" class="st1" d="M5288.2,5264.7L5288.2,5264.7l1.6,0.6c2.7,1,5.5,2,8.3,2.9c75.6,26,159.4,39.5,249.5,40.2
	c-13.8-23-25-44.6-34.1-63.8c-113.7-3.2-207-36.4-276-73c-12.7-0.6-82.5-4.4-138.7-19.9C5130.2,5181.6,5191.7,5229.8,5288.2,5264.7z
	"/>
<path id="XMLID_8_" class="st1" d="M5586.6,5829.1c22.8-1.2,63.2-5,111.1-17.2l2.1-0.6c24.6-6.4,48.8-14.4,71.9-23.9
	c67.7-27.8,125.5-67.7,171.7-118.5c0.9-4.5,2-9.1,3.1-13.8c-0.8-6.5-4.9-12.3-11.4-15c-8.7-3.7-17.1-7.4-25.5-11.3
	c-58.7,49.3-131.4,83.6-216.5,101.9C5643.6,5771.6,5609.7,5802.8,5586.6,5829.1z"/>
<path id="XMLID_7_" class="st1" d="M5472.2,5165.2c-82.3-16-153.8-46.2-213.4-80.2l0,0c-0.9-0.2-82-14.8-162-40.3
	c19.5,19.8,50.9,48.3,93.1,76.7c66.6,44.8,174.3,98.2,314.9,104.2c-8.7-19.8-14.8-36.3-18.7-48.2
	C5484,5171.2,5478.7,5166.5,5472.2,5165.2z"/>
<path id="XMLID_6_" class="st1" d="M5594.2,4277.2c43.7-19.2,81.4-42.4,112.2-68.8c0.9-38,4.9-71.3,8.9-95.4
	c-43.9,42.8-96.3,77.1-156.4,102.2c-6.8,11.8-34.2,58.5-59.2,94.5C5521.6,4304.1,5556.2,4293.9,5594.2,4277.2z"/>
<path id="XMLID_5_" class="st1" d="M5386.6,5571.2c82.6,12.2,208.8,13,347.3-50.2c-19.2-15.4-37.1-31.1-53.7-46.9
	c-68.8,19.7-136.6,29.5-203.1,29.5c-12.8,0-25.5-0.4-38.2-1.1c-11.3,2-116.4,21.1-179.8,35
	C5284.9,5547.8,5329.4,5562.7,5386.6,5571.2z"/>
<path id="XMLID_4_" class="st1" d="M5664.9,5459.1c-17.7-17.8-33.8-35.7-48.5-53.5c-31.1,2.3-61.5,3.5-91.1,3.5
	c-51.4,0-100.4-3.5-147-10.5c-54.8,17.3-119.8,27.8-158.2,33C5360.6,5491.9,5510,5501.1,5664.9,5459.1z"/>
<path id="XMLID_3_" class="st1" d="M5249.2,5348.7c101.7,34.6,220.4,47.7,352.9,39.2c-16.2-20.8-30.5-41.2-43-60.8
	c-1.2,0-2.4,0-3.6,0c-94.6,0-182.6-13.7-261.8-40.7c-12.9,0.4-98.9,3.1-173.3-1C5144.1,5302.1,5186.3,5327.3,5249.2,5348.7z"/>
</svg>
